# Blender 5.0.0
# www.blender.org
mtllib Body.mtl
o TaiwanBear
v 0.096998 -0.090948 -0.151443
v 0.117293 -0.090948 0.152016
v -0.000000 -0.090948 -0.151443
v 0.000000 -0.090948 0.152016
v 0.085853 -0.173834 -0.130765
v 0.100258 -0.173834 0.131338
v 0.000000 -0.173834 0.131338
v -0.000000 -0.173834 -0.130765
v 0.000000 -0.014856 0.141237
v 0.144072 -0.014856 0.141237
v 0.114518 -0.014856 -0.140664
v -0.000000 -0.014856 -0.140664
v 0.000000 0.150065 0.057869
v 0.076197 0.150065 0.057869
v 0.062686 0.150065 -0.057296
v 0.000000 0.150065 -0.057296
v 0.117293 -0.090948 0.000287
v 0.000000 -0.090948 0.000287
v 0.100258 -0.173834 0.000287
v 0.144072 -0.014856 0.000287
v 0.000000 -0.014856 0.000287
v 0.076197 0.150065 0.000287
v 0.000000 0.150065 0.000287
v -0.000000 0.110258 -0.094745
v 0.085616 0.110258 -0.094745
v 0.108694 0.110258 0.091114
v 0.000000 0.110258 0.091114
v 0.108694 0.110258 0.000287
v 0.000000 0.110258 0.000287
v -0.096998 -0.090948 -0.151443
v -0.117293 -0.090948 0.152016
v -0.085853 -0.173834 -0.130765
v -0.100258 -0.173834 0.131338
v -0.144072 -0.014856 0.141237
v -0.114519 -0.014856 -0.140664
v -0.076197 0.150065 0.057869
v -0.062686 0.150065 -0.057296
v -0.117293 -0.090948 0.000287
v -0.100258 -0.173834 0.000287
v -0.144072 -0.014856 0.000287
v -0.076197 0.150065 0.000287
v -0.085616 0.110258 -0.094745
v -0.108694 0.110258 0.091114
v -0.108694 0.110258 0.000287
vn 0.9505 -0.2652 -0.1619
vn -0.0000 -0.2421 0.9703
vn -0.0000 -0.2421 -0.9703
vn 0.9795 -0.2013 -0.0000
vn -0.0000 0.6852 -0.7283
vn -0.0000 0.1403 -0.9901
vn -0.0000 0.1403 0.9901
vn -1.0000 -0.0000 -0.0000
vn -0.0000 1.0000 -0.0000
vn -0.0000 0.6410 0.7675
vn 0.7643 0.6183 -0.1832
vn 0.7746 0.6324 -0.0000
vn 0.9762 -0.1809 -0.1198
vn 0.9433 -0.3320 -0.0000
vn 0.9623 0.2721 -0.0000
vn 0.9372 0.2791 -0.2090
vn -0.0000 0.3719 0.9283
vn -0.0000 0.3445 -0.9388
vn -0.9505 -0.2652 -0.1619
vn -0.9795 -0.2013 -0.0000
vn -0.7643 0.6183 -0.1832
vn -0.7746 0.6324 -0.0000
vn -0.9762 -0.1809 -0.1198
vn -0.9433 -0.3320 -0.0000
vn -0.9623 0.2721 -0.0000
vn -0.9372 0.2791 -0.2090
vn -0.0000 -1.0000 -0.0000
vt 0.500000 0.500000
vt 0.375000 0.500000
vt 0.625000 0.500000
vt 0.750000 0.500000
vt 0.750000 0.627729
vt 0.625000 0.627729
vt 0.250000 0.500000
vt 0.375000 0.627729
vt 0.250000 0.627729
vt 0.500000 0.627729
vt 0.000000 0.000000
vt 0.500000 0.375000
vt 0.625000 0.375000
vt 0.375000 0.375000
s 0
usemtl BodyBlack
f 17/1/1 1/2/1 11/2/1 20/1/1
f 2/3/2 4/4/2 7/5/2 6/6/2
f 3/7/3 1/2/3 5/8/3 8/9/3
f 17/1/4 2/3/4 6/6/4 19/10/4
f 25/2/5 24/7/5 16/7/5 15/2/5
f 1/2/6 3/7/6 12/7/6 11/2/6
f 4/4/7 2/3/7 10/3/7 9/4/7
f 18/11/8 4/11/8 9/11/8 21/11/8
f 23/12/9 13/13/9 14/3/9 22/1/9
f 27/4/10 26/3/10 14/3/10 13/4/10
f 29/11/8 27/11/8 13/11/8 23/11/8
f 28/1/11 25/2/11 15/2/11 22/1/11
f 26/3/12 28/1/12 22/1/12 14/3/12
f 24/11/8 29/11/8 23/11/8 16/11/8
f 16/14/9 23/12/9 22/1/9 15/2/9
f 3/11/8 18/11/8 21/11/8 12/11/8
f 1/2/13 17/1/13 19/10/13 5/8/13
f 2/3/14 17/1/14 20/1/14 10/3/14
f 12/11/8 21/11/8 29/11/8 24/11/8
f 10/3/15 20/1/15 28/1/15 26/3/15
f 20/1/16 11/2/16 25/2/16 28/1/16
f 21/11/8 9/11/8 27/11/8 29/11/8
f 9/4/17 10/3/17 26/3/17 27/4/17
f 11/2/18 12/7/18 24/7/18 25/2/18
f 38/1/19 40/1/19 35/2/19 30/2/19
f 31/3/2 33/6/2 7/5/2 4/4/2
f 3/7/3 8/9/3 32/8/3 30/2/3
f 38/1/20 39/10/20 33/6/20 31/3/20
f 42/2/5 37/2/5 16/7/5 24/7/5
f 30/2/6 35/2/6 12/7/6 3/7/6
f 4/4/7 9/4/7 34/3/7 31/3/7
f 23/12/9 41/1/9 36/3/9 13/13/9
f 27/4/10 13/4/10 36/3/10 43/3/10
f 44/1/21 41/1/21 37/2/21 42/2/21
f 43/3/22 36/3/22 41/1/22 44/1/22
f 16/14/9 37/2/9 41/1/9 23/12/9
f 30/2/23 32/8/23 39/10/23 38/1/23
f 31/3/24 34/3/24 40/1/24 38/1/24
f 34/3/25 43/3/25 44/1/25 40/1/25
f 40/1/26 44/1/26 42/2/26 35/2/26
f 9/4/17 27/4/17 43/3/17 34/3/17
f 35/2/18 42/2/18 24/7/18 12/7/18
f 6/6/27 7/5/27 33/6/27 39/10/27 32/8/27 8/9/27 5/8/27 19/10/27
