# Blender 5.0.0
# www.blender.org
mtllib Body.001.mtl
o Head.C
v 0.102412 0.034585 -0.034818
v 0.000000 -0.049072 -0.112310
v 0.000000 -0.093887 -0.160048
v 0.000000 -0.035028 -0.073984
v 0.102412 -0.035028 -0.073984
v 0.026477 -0.008216 -0.144108
v 0.018040 -0.022631 -0.151342
v -0.000000 0.093126 -0.039879
v 0.094146 0.093127 -0.039879
v 0.056798 -0.012434 -0.157809
v 0.000000 -0.062314 -0.051855
v 0.000000 -0.110346 -0.134730
v 0.022635 -0.081798 -0.174785
v 0.000000 0.013194 -0.159695
v 0.091046 0.013194 -0.159695
v 0.065100 0.029145 -0.112404
v -0.000000 0.093126 0.038624
v -0.000000 0.093127 -0.118382
v 0.094147 0.093127 -0.118382
v 0.094146 0.093126 0.038624
v 0.000000 0.082806 -0.120529
v 0.102412 0.082806 -0.120529
v 0.047416 -0.057332 -0.024727
v 0.031073 -0.057332 -0.024727
v -0.000000 0.036188 0.050893
v 0.102412 0.036188 0.050894
v 0.031073 -0.068943 -0.171639
v 0.022635 -0.093887 -0.160048
v 0.018040 -0.101000 -0.151342
v 0.018040 -0.110346 -0.134730
v 0.000000 -0.101000 -0.151342
v 0.071235 -0.062314 -0.051855
v 0.026477 -0.091376 -0.144108
v 0.000000 -0.059130 -0.114741
v 0.000000 -0.012434 -0.157809
v 0.065100 -0.049224 -0.112404
v 0.000000 -0.091743 -0.180858
v 0.000000 -0.101444 -0.119371
v 0.027898 -0.101444 -0.119371
v 0.031073 -0.085665 -0.151253
v 0.093545 0.020380 0.074622
v 0.093545 0.015380 0.074622
v 0.097667 0.020380 0.074216
v 0.097667 0.015380 0.074216
v 0.101631 0.020380 0.073013
v 0.101631 0.015380 0.073013
v 0.105285 0.020380 0.071060
v 0.105285 0.015380 0.071060
v 0.108487 0.020380 0.068432
v 0.108487 0.015380 0.068432
v 0.111115 0.020380 0.065230
v 0.111115 0.015380 0.065230
v 0.113068 0.020380 0.061577
v 0.113068 0.015380 0.061577
v 0.114270 0.020380 0.057613
v 0.114270 0.015380 0.057613
v 0.114676 0.020380 0.053490
v 0.114676 0.015380 0.053490
v 0.114270 0.020380 0.049368
v 0.114270 0.015380 0.049368
v 0.113068 0.020380 0.045404
v 0.113068 0.015380 0.045404
v 0.111115 0.020380 0.041750
v 0.111115 0.015380 0.041750
v 0.108487 0.020380 0.038548
v 0.108487 0.015380 0.038548
v 0.105285 0.020380 0.035920
v 0.105285 0.015380 0.035920
v 0.101631 0.020380 0.033967
v 0.101631 0.015380 0.033967
v 0.097667 0.020380 0.032765
v 0.097667 0.015380 0.032765
v 0.093545 0.020380 0.032359
v 0.093545 0.015380 0.032359
v 0.089422 0.020380 0.032765
v 0.089422 0.015380 0.032765
v 0.085458 0.020380 0.033967
v 0.085458 0.015380 0.033967
v 0.081805 0.020380 0.035920
v 0.081805 0.015380 0.035920
v 0.078603 0.020380 0.038548
v 0.078603 0.015380 0.038548
v 0.075975 0.020380 0.041750
v 0.075975 0.015380 0.041750
v 0.074022 0.020380 0.045404
v 0.074022 0.015380 0.045404
v 0.072820 0.020380 0.049368
v 0.072820 0.015380 0.049368
v 0.072413 0.020380 0.053490
v 0.072413 0.015380 0.053490
v 0.072820 0.020380 0.057613
v 0.072820 0.015380 0.057613
v 0.074022 0.020380 0.061577
v 0.074022 0.015380 0.061577
v 0.075975 0.020380 0.065230
v 0.075975 0.015380 0.065230
v 0.078603 0.020380 0.068432
v 0.078603 0.015380 0.068432
v 0.081805 0.020380 0.071060
v 0.081805 0.015380 0.071060
v 0.085458 0.020380 0.073013
v 0.085458 0.015380 0.073013
v 0.089422 0.020380 0.074216
v 0.089422 0.015380 0.074216
v 0.085171 -0.053391 -0.003268
v 0.000000 -0.053391 -0.003268
v 0.031073 -0.058373 -0.030397
v 0.045790 -0.058373 -0.030397
v 0.029549 -0.058649 -0.031895
v 0.046943 -0.058649 -0.031895
v 0.049429 -0.057057 -0.023228
v 0.029549 -0.057057 -0.023228
v -0.102412 0.034585 -0.034818
v -0.102412 -0.035028 -0.073984
v -0.026477 -0.008216 -0.144108
v -0.018040 -0.022631 -0.151342
v -0.094147 0.093126 -0.039879
v -0.056798 -0.012434 -0.157809
v -0.022635 -0.081798 -0.174785
v -0.091046 0.013194 -0.159695
v -0.065100 0.029145 -0.112404
v -0.094147 0.093126 -0.118382
v -0.094147 0.093126 0.038624
v -0.102412 0.082806 -0.120529
v -0.047416 -0.057332 -0.024727
v -0.031073 -0.057332 -0.024727
v -0.102412 0.036188 0.050893
v -0.031073 -0.068943 -0.171639
v -0.022635 -0.093887 -0.160048
v -0.018040 -0.101000 -0.151342
v -0.018040 -0.110346 -0.134730
v -0.071235 -0.062315 -0.051855
v -0.026477 -0.091376 -0.144108
v -0.065100 -0.049224 -0.112404
v -0.027898 -0.101444 -0.119371
v -0.031073 -0.085665 -0.151253
v -0.093545 0.020380 0.074622
v -0.093545 0.015380 0.074622
v -0.097667 0.020380 0.074216
v -0.097667 0.015380 0.074216
v -0.101631 0.020380 0.073013
v -0.101631 0.015380 0.073013
v -0.105285 0.020380 0.071060
v -0.105285 0.015380 0.071060
v -0.108487 0.020380 0.068432
v -0.108487 0.015380 0.068432
v -0.111115 0.020380 0.065230
v -0.111115 0.015380 0.065230
v -0.113068 0.020380 0.061577
v -0.113068 0.015380 0.061577
v -0.114270 0.020380 0.057613
v -0.114270 0.015380 0.057613
v -0.114676 0.020380 0.053490
v -0.114676 0.015380 0.053490
v -0.114270 0.020380 0.049368
v -0.114270 0.015380 0.049368
v -0.113068 0.020380 0.045404
v -0.113068 0.015380 0.045404
v -0.111115 0.020380 0.041750
v -0.111115 0.015380 0.041750
v -0.108487 0.020380 0.038548
v -0.108487 0.015380 0.038548
v -0.105285 0.020380 0.035920
v -0.105285 0.015380 0.035920
v -0.101631 0.020380 0.033967
v -0.101631 0.015380 0.033967
v -0.097667 0.020380 0.032765
v -0.097667 0.015380 0.032765
v -0.093545 0.020380 0.032359
v -0.093545 0.015380 0.032359
v -0.089422 0.020380 0.032765
v -0.089422 0.015380 0.032765
v -0.085458 0.020380 0.033967
v -0.085458 0.015380 0.033967
v -0.081805 0.020380 0.035920
v -0.081805 0.015380 0.035920
v -0.078603 0.020380 0.038548
v -0.078603 0.015380 0.038548
v -0.075975 0.020380 0.041750
v -0.075975 0.015380 0.041750
v -0.074022 0.020380 0.045404
v -0.074022 0.015380 0.045404
v -0.072820 0.020380 0.049368
v -0.072820 0.015380 0.049368
v -0.072414 0.020380 0.053490
v -0.072414 0.015380 0.053490
v -0.072820 0.020380 0.057613
v -0.072820 0.015380 0.057613
v -0.074022 0.020380 0.061577
v -0.074022 0.015380 0.061577
v -0.075975 0.020380 0.065230
v -0.075975 0.015380 0.065230
v -0.078603 0.020380 0.068432
v -0.078603 0.015380 0.068432
v -0.081805 0.020380 0.071060
v -0.081805 0.015380 0.071060
v -0.085458 0.020380 0.073013
v -0.085458 0.015380 0.073013
v -0.089422 0.020380 0.074216
v -0.089422 0.015380 0.074216
v -0.085171 -0.053391 -0.003268
v -0.031073 -0.058373 -0.030397
v -0.045790 -0.058373 -0.030397
v -0.029549 -0.058649 -0.031895
v -0.046943 -0.058649 -0.031895
v -0.049429 -0.057057 -0.023228
v -0.029549 -0.057057 -0.023228
vn -0.0000 1.0000 -0.0000
vn 0.9829 -0.1599 0.0912
vn -0.0000 0.4903 -0.8715
vn -0.0000 -0.8715 -0.4903
vn -0.0000 -0.8652 0.5014
vn 0.8270 -0.4974 -0.2619
vn 0.5942 -0.7921 -0.1395
vn -0.0000 -0.9835 0.1806
vn -0.0000 -0.0734 -0.9973
vn -1.0000 -0.0000 -0.0000
vn 0.6017 -0.6260 -0.4961
vn 0.8165 -0.4463 -0.3661
vn 0.2194 0.0937 -0.9711
vn 0.9958 -0.0335 -0.0849
vn -0.0000 0.2107 0.9776
vn 0.9899 0.1415 -0.0014
vn -0.0000 0.2036 -0.9791
vn 0.9694 0.2356 0.0692
vn -0.0000 -0.5174 0.8557
vn 0.0699 -0.7737 0.6297
vn 0.2460 -0.8998 -0.3603
vn 0.8606 -0.3365 -0.3823
vn 0.8081 -0.5464 -0.2200
vn 0.0350 0.2557 -0.9661
vn 0.0980 -0.0000 0.9952
vn 0.2903 -0.0000 0.9569
vn 0.4714 -0.0000 0.8819
vn 0.6344 -0.0000 0.7730
vn 0.7730 -0.0000 0.6344
vn 0.8819 -0.0000 0.4714
vn 0.9569 -0.0000 0.2903
vn 0.9952 -0.0000 0.0980
vn 0.9952 -0.0000 -0.0980
vn 0.9569 -0.0000 -0.2903
vn 0.8819 -0.0000 -0.4714
vn 0.7730 -0.0000 -0.6344
vn 0.6344 -0.0000 -0.7730
vn 0.4714 -0.0000 -0.8819
vn 0.2903 -0.0000 -0.9569
vn 0.0980 -0.0000 -0.9952
vn -0.0980 -0.0000 -0.9952
vn -0.2903 -0.0000 -0.9569
vn -0.4714 -0.0000 -0.8819
vn -0.6344 -0.0000 -0.7730
vn -0.7730 -0.0000 -0.6344
vn -0.8819 -0.0000 -0.4714
vn -0.9569 -0.0000 -0.2903
vn -0.9952 -0.0000 -0.0980
vn -0.9952 -0.0000 0.0980
vn -0.9569 -0.0000 0.2903
vn -0.8819 -0.0000 0.4714
vn -0.7730 -0.0000 0.6344
vn -0.6344 -0.0000 0.7730
vn -0.4714 -0.0000 0.8819
vn -0.0000 -1.0000 -0.0000
vn -0.2903 -0.0000 0.9569
vn -0.0980 -0.0000 0.9952
vn -0.0000 -0.9836 0.1806
vn -0.9829 -0.1599 0.0912
vn -0.8270 -0.4974 -0.2619
vn -0.5942 -0.7921 -0.1395
vn -0.6017 -0.6260 -0.4961
vn -0.8165 -0.4463 -0.3661
vn -0.2194 0.0937 -0.9711
vn -0.9958 -0.0335 -0.0849
vn -0.9899 0.1415 -0.0014
vn -0.9694 0.2356 0.0692
vn -0.0699 -0.7737 0.6297
vn -0.2460 -0.8998 -0.3603
vn -0.8606 -0.3365 -0.3823
vn -0.8081 -0.5464 -0.2200
vn -0.0350 0.2557 -0.9661
vt 0.625000 0.750000
vt 0.375000 0.750000
vt 0.250000 0.750000
vt 0.750000 0.750000
vt 0.500000 0.750000
vt 0.625000 0.875000
vt 0.500000 0.875000
vt 0.500000 0.750000
vt 0.625000 0.750000
vt 0.500000 0.750000
vt 0.651385 0.750000
vt 0.724229 0.750000
vt 0.723087 0.750000
vt 0.652538 0.750000
vt 0.375000 0.750000
vt 0.000000 0.000000
vt 1.000000 0.500000
vt 1.000000 1.000000
vt 0.968750 1.000000
vt 0.968750 0.500000
vt 0.937500 1.000000
vt 0.937500 0.500000
vt 0.906250 1.000000
vt 0.906250 0.500000
vt 0.875000 1.000000
vt 0.875000 0.500000
vt 0.843750 1.000000
vt 0.843750 0.500000
vt 0.812500 1.000000
vt 0.812500 0.500000
vt 0.781250 1.000000
vt 0.781250 0.500000
vt 0.750000 1.000000
vt 0.750000 0.500000
vt 0.718750 1.000000
vt 0.718750 0.500000
vt 0.687500 1.000000
vt 0.687500 0.500000
vt 0.656250 1.000000
vt 0.656250 0.500000
vt 0.625000 1.000000
vt 0.625000 0.500000
vt 0.593750 1.000000
vt 0.593750 0.500000
vt 0.562500 1.000000
vt 0.562500 0.500000
vt 0.531250 1.000000
vt 0.531250 0.500000
vt 0.500000 1.000000
vt 0.500000 0.500000
vt 0.468750 1.000000
vt 0.468750 0.500000
vt 0.437500 1.000000
vt 0.437500 0.500000
vt 0.406250 1.000000
vt 0.406250 0.500000
vt 0.375000 1.000000
vt 0.375000 0.500000
vt 0.343750 1.000000
vt 0.343750 0.500000
vt 0.312500 1.000000
vt 0.312500 0.500000
vt 0.281250 1.000000
vt 0.281250 0.500000
vt 0.250000 1.000000
vt 0.250000 0.500000
vt 0.218750 1.000000
vt 0.218750 0.500000
vt 0.187500 1.000000
vt 0.187500 0.500000
vt 0.156250 1.000000
vt 0.156250 0.500000
vt 0.125000 1.000000
vt 0.125000 0.500000
vt 0.093750 1.000000
vt 0.093750 0.500000
vt 0.062500 1.000000
vt 0.062500 0.500000
vt 0.296822 0.485388
vt 0.250000 0.490000
vt 0.203178 0.485388
vt 0.158156 0.471731
vt 0.116663 0.449553
vt 0.080294 0.419706
vt 0.050447 0.383337
vt 0.028269 0.341844
vt 0.014612 0.296822
vt 0.010000 0.250000
vt 0.014612 0.203178
vt 0.028269 0.158156
vt 0.050447 0.116663
vt 0.080294 0.080294
vt 0.116663 0.050447
vt 0.158156 0.028269
vt 0.203178 0.014612
vt 0.250000 0.010000
vt 0.296822 0.014612
vt 0.341844 0.028269
vt 0.383337 0.050447
vt 0.419706 0.080294
vt 0.449553 0.116663
vt 0.471731 0.158156
vt 0.485388 0.203178
vt 0.490000 0.250000
vt 0.485388 0.296822
vt 0.471731 0.341844
vt 0.449553 0.383337
vt 0.419706 0.419706
vt 0.383337 0.449553
vt 0.341844 0.471731
vt 0.031250 1.000000
vt 0.031250 0.500000
vt 0.000000 1.000000
vt 0.000000 0.500000
vt 0.750000 0.490000
vt 0.796822 0.485388
vt 0.841844 0.471731
vt 0.883337 0.449553
vt 0.919706 0.419706
vt 0.949553 0.383337
vt 0.971731 0.341844
vt 0.985388 0.296822
vt 0.990000 0.250000
vt 0.985388 0.203178
vt 0.971731 0.158156
vt 0.949553 0.116663
vt 0.919706 0.080294
vt 0.883337 0.050447
vt 0.841844 0.028269
vt 0.796822 0.014612
vt 0.750000 0.010000
vt 0.703178 0.014612
vt 0.658156 0.028269
vt 0.616663 0.050447
vt 0.580294 0.080294
vt 0.550447 0.116663
vt 0.528269 0.158156
vt 0.514612 0.203178
vt 0.510000 0.250000
vt 0.514612 0.296822
vt 0.528269 0.341844
vt 0.550447 0.383337
vt 0.580294 0.419706
vt 0.616663 0.449553
vt 0.658156 0.471731
vt 0.703178 0.485388
vt 0.731350 0.750000
vt 0.644060 0.750000
vt 0.730068 0.750000
vt 0.645355 0.750000
s 0
usemtl BodyBlack
f 20/1/1 19/2/1 18/3/1 17/4/1
f 1/5/2 26/1/2 105/1/2 5/5/2
f 21/3/3 22/2/3 15/2/3 14/3/3
f 29/5/4 30/1/4 12/6/4 31/7/4
f 39/1/5 38/4/5 12/4/5 30/1/5
f 33/8/6 39/1/6 30/1/6 29/5/6
f 5/5/7 105/1/7 32/9/7 36/10/7
f 23/11/8 24/12/8 107/13/8 108/14/8
f 14/3/9 15/2/9 10/15/9 35/3/9
f 4/16/10 14/16/10 35/16/10 2/16/10
f 106/16/10 4/16/10 2/16/10 11/16/10
f 15/2/11 5/5/11 36/10/11 10/15/11
f 27/2/12 40/8/12 28/5/12 13/2/12
f 22/2/14 1/5/14 5/5/14 15/2/14
f 20/1/15 17/4/15 25/4/15 26/1/15
f 9/5/16 20/1/16 26/1/16 1/5/16
f 18/3/17 19/2/17 22/2/17 21/3/17
f 19/2/18 9/5/18 1/5/18 22/2/18
f 105/1/19 26/1/19 25/4/19 106/16/19
f 28/5/21 3/7/21 37/16/21 13/2/21
f 41/17/25 42/18/25 44/19/25 43/20/25
f 43/20/26 44/19/26 46/21/26 45/22/26
f 45/22/27 46/21/27 48/23/27 47/24/27
f 47/24/28 48/23/28 50/25/28 49/26/28
f 49/26/29 50/25/29 52/27/29 51/28/29
f 51/28/30 52/27/30 54/29/30 53/30/30
f 53/30/31 54/29/31 56/31/31 55/32/31
f 55/32/32 56/31/32 58/33/32 57/34/32
f 57/34/33 58/33/33 60/35/33 59/36/33
f 59/36/34 60/35/34 62/37/34 61/38/34
f 61/38/35 62/37/35 64/39/35 63/40/35
f 63/40/36 64/39/36 66/41/36 65/42/36
f 65/42/37 66/41/37 68/43/37 67/44/37
f 67/44/38 68/43/38 70/45/38 69/46/38
f 69/46/39 70/45/39 72/47/39 71/48/39
f 71/48/40 72/47/40 74/49/40 73/50/40
f 73/50/41 74/49/41 76/51/41 75/52/41
f 75/52/42 76/51/42 78/53/42 77/54/42
f 77/54/43 78/53/43 80/55/43 79/56/43
f 79/56/44 80/55/44 82/57/44 81/58/44
f 81/58/45 82/57/45 84/59/45 83/60/45
f 83/60/46 84/59/46 86/61/46 85/62/46
f 85/62/47 86/61/47 88/63/47 87/64/47
f 87/64/48 88/63/48 90/65/48 89/66/48
f 89/66/49 90/65/49 92/67/49 91/68/49
f 91/68/50 92/67/50 94/69/50 93/70/50
f 93/70/51 94/69/51 96/71/51 95/72/51
f 95/72/52 96/71/52 98/73/52 97/74/52
f 97/74/53 98/73/53 100/75/53 99/76/53
f 99/76/54 100/75/54 102/77/54 101/78/54
f 44/79/55 42/80/55 104/81/55 102/82/55 100/83/55 98/84/55 96/85/55 94/86/55 92/87/55 90/88/55 88/89/55 86/90/55 84/91/55 82/92/55 80/93/55 78/94/55 76/95/55 74/96/55 72/97/55 70/98/55 68/99/55 66/100/55 64/101/55 62/102/55 60/103/55 58/104/55 56/105/55 54/106/55 52/107/55 50/108/55 48/109/55 46/110/55
f 101/78/56 102/77/56 104/111/56 103/112/56
f 103/112/57 104/111/57 42/113/57 41/114/57
f 41/115/1 43/116/1 45/117/1 47/118/1 49/119/1 51/120/1 53/121/1 55/122/1 57/123/1 59/124/1 61/125/1 63/126/1 65/127/1 67/128/1 69/129/1 71/130/1 73/131/1 75/132/1 77/133/1 79/134/1 81/135/1 83/136/1 85/137/1 87/138/1 89/139/1 91/140/1 93/141/1 95/142/1 97/143/1 99/144/1 101/145/1 103/146/1
f 112/147/8 111/148/8 105/1/8 106/4/8
f 109/149/8 112/147/8 106/4/8 11/4/8
f 111/148/8 110/150/8 32/9/8 105/1/8
f 110/150/8 109/149/8 11/4/8 32/9/8
f 123/1/1 17/4/1 18/3/1 122/2/1
f 113/5/59 114/5/59 201/1/59 127/1/59
f 21/3/3 14/3/3 120/2/3 124/2/3
f 130/5/4 31/7/4 12/6/4 131/1/4
f 135/1/5 131/1/5 12/4/5 38/4/5
f 133/8/60 130/5/60 131/1/60 135/1/60
f 114/5/61 134/10/61 132/9/61 201/1/61
f 125/11/8 203/14/8 202/13/8 126/12/8
f 14/3/9 35/3/9 118/15/9 120/2/9
f 120/2/62 118/15/62 134/10/62 114/5/62
f 128/2/63 119/2/63 129/5/63 136/8/63
f 124/2/65 120/2/65 114/5/65 113/5/65
f 123/1/15 127/1/15 25/4/15 17/4/15
f 117/5/66 113/5/66 127/1/66 123/1/66
f 18/3/17 21/3/17 124/2/17 122/2/17
f 122/2/67 124/2/67 113/5/67 117/5/67
f 201/1/19 106/16/19 25/4/19 127/1/19
f 129/5/69 119/2/69 37/16/69 3/7/69
f 137/17/57 139/20/57 140/19/57 138/18/57
f 139/20/56 141/22/56 142/21/56 140/19/56
f 141/22/54 143/24/54 144/23/54 142/21/54
f 143/24/53 145/26/53 146/25/53 144/23/53
f 145/26/52 147/28/52 148/27/52 146/25/52
f 147/28/51 149/30/51 150/29/51 148/27/51
f 149/30/50 151/32/50 152/31/50 150/29/50
f 151/32/49 153/34/49 154/33/49 152/31/49
f 153/34/48 155/36/48 156/35/48 154/33/48
f 155/36/47 157/38/47 158/37/47 156/35/47
f 157/38/46 159/40/46 160/39/46 158/37/46
f 159/40/45 161/42/45 162/41/45 160/39/45
f 161/42/44 163/44/44 164/43/44 162/41/44
f 163/44/43 165/46/43 166/45/43 164/43/43
f 165/46/42 167/48/42 168/47/42 166/45/42
f 167/48/41 169/50/41 170/49/41 168/47/41
f 169/50/40 171/52/40 172/51/40 170/49/40
f 171/52/39 173/54/39 174/53/39 172/51/39
f 173/54/38 175/56/38 176/55/38 174/53/38
f 175/56/37 177/58/37 178/57/37 176/55/37
f 177/58/36 179/60/36 180/59/36 178/57/36
f 179/60/35 181/62/35 182/61/35 180/59/35
f 181/62/34 183/64/34 184/63/34 182/61/34
f 183/64/33 185/66/33 186/65/33 184/63/33
f 185/66/32 187/68/32 188/67/32 186/65/32
f 187/68/31 189/70/31 190/69/31 188/67/31
f 189/70/30 191/72/30 192/71/30 190/69/30
f 191/72/29 193/74/29 194/73/29 192/71/29
f 193/74/28 195/76/28 196/75/28 194/73/28
f 195/76/27 197/78/27 198/77/27 196/75/27
f 140/79/55 142/110/55 144/109/55 146/108/55 148/107/55 150/106/55 152/105/55 154/104/55 156/103/55 158/102/55 160/101/55 162/100/55 164/99/55 166/98/55 168/97/55 170/96/55 172/95/55 174/94/55 176/93/55 178/92/55 180/91/55 182/90/55 184/89/55 186/88/55 188/87/55 190/86/55 192/85/55 194/84/55 196/83/55 198/82/55 200/81/55 138/80/55
f 197/78/26 199/112/26 200/111/26 198/77/26
f 199/112/25 137/114/25 138/113/25 200/111/25
f 137/115/1 199/146/1 197/145/1 195/144/1 193/143/1 191/142/1 189/141/1 187/140/1 185/139/1 183/138/1 181/137/1 179/136/1 177/135/1 175/134/1 173/133/1 171/132/1 169/131/1 167/130/1 165/129/1 163/128/1 161/127/1 159/126/1 157/125/1 155/124/1 153/123/1 151/122/1 149/121/1 147/120/1 145/119/1 143/118/1 141/117/1 139/116/1
f 207/147/8 106/4/8 201/1/8 206/148/8
f 204/149/8 11/4/8 106/4/8 207/147/8
f 206/148/8 201/1/8 132/9/8 205/150/8
f 205/150/8 132/9/8 11/4/8 204/149/8
usemtl Snout
f 13/2/13 37/16/13 27/2/13
f 10/15/22 36/10/22 40/8/22 27/2/22
f 36/10/23 32/9/23 39/1/23 33/8/23
f 32/9/5 11/4/5 38/4/5 39/1/5
f 35/3/24 10/15/24 27/2/24 37/3/24
f 119/2/64 128/2/64 37/16/64
f 118/15/70 128/2/70 136/8/70 134/10/70
f 134/10/71 133/8/71 135/1/71 132/9/71
f 132/9/5 135/1/5 38/4/5 11/4/5
f 35/3/72 37/3/72 128/2/72 118/15/72
usemtl Tongue
f 28/5/20 40/8/20 36/10/20 34/16/20 3/7/20
f 129/5/68 3/7/68 34/16/68 134/10/68 136/8/68
usemtl Eybeball
f 108/14/58 107/13/58 109/149/58 110/150/58
f 24/12/58 23/11/58 111/148/58 112/147/58
f 107/13/58 24/12/58 112/147/58 109/149/58
f 23/11/8 108/14/8 110/150/8 111/148/8
f 203/14/58 205/150/58 204/149/58 202/13/58
f 126/12/58 207/147/58 206/148/58 125/11/58
f 202/13/8 204/149/8 207/147/8 126/12/8
f 125/11/8 206/148/8 205/150/8 203/14/8
l 17 8
l 7 6
l 8 18
l 16 6
l 116 115
l 121 115
