# Blender 5.0.0
# www.blender.org
mtllib Body.002.mtl
o Link_UpperBody_C
v 0.126635 0.029058 0.170052
v -0.000000 0.031063 -0.132790
v 0.000000 0.029058 0.170052
v 0.085851 0.144264 -0.112729
v 0.100256 0.144264 0.149374
v -0.000000 0.144263 0.149374
v -0.000000 0.144263 -0.112729
v 0.102409 -0.052641 0.116666
v 0.087341 -0.011791 -0.106714
v -0.000000 0.003120 -0.114530
v 0.000000 -0.052641 0.116666
v 0.094144 -0.080570 0.096824
v 0.094144 -0.080570 -0.060179
v 0.000000 -0.080570 -0.060179
v 0.000000 -0.080570 0.096824
v 0.126635 0.029058 0.018322
v -0.000000 0.029058 0.018322
v 0.100256 0.144264 0.018322
v 0.102409 -0.052641 0.018322
v 0.000000 -0.052641 0.018322
v 0.094144 -0.080570 0.018322
v 0.000000 -0.080570 0.018322
v 0.103109 0.029058 -0.133407
v -0.000000 0.029058 -0.133407
v 0.000000 -0.052641 -0.080021
v 0.102409 -0.052641 -0.080021
v 0.094144 -0.075779 -0.060179
v 0.000000 -0.075779 -0.060179
v -0.126635 0.029058 0.170052
v -0.085851 0.144263 -0.112729
v -0.100256 0.144263 0.149374
v -0.102409 -0.052641 0.116666
v -0.087341 -0.011791 -0.106714
v -0.094144 -0.080570 0.096824
v -0.094144 -0.080570 -0.060179
v -0.126635 0.029058 0.018322
v -0.100256 0.144263 0.018322
v -0.102409 -0.052641 0.018322
v -0.094144 -0.080570 0.018322
v -0.103109 0.029058 -0.133407
v -0.102409 -0.052641 -0.080021
v -0.094144 -0.075779 -0.060179
vn 0.9748 0.2232 -0.0000
vn -0.0000 0.1767 -0.9843
vn -0.0000 0.1767 0.9843
vn -1.0000 -0.0000 -0.0000
vn 0.9587 -0.2843 -0.0000
vn -0.0000 -0.5470 0.8371
vn -0.0185 -0.5469 -0.8370
vn -0.0000 -0.5792 -0.8152
vn -0.0000 -0.5792 0.8152
vn 0.9589 -0.2838 -0.0000
vn 0.9794 -0.1795 -0.0921
vn 0.9719 0.1958 -0.1304
vn -0.0160 -0.5707 -0.8210
vn -0.0073 -0.5360 -0.8442
vn 1.0000 -0.0000 -0.0000
vn -0.0000 -0.5470 -0.8371
vn -0.0254 -0.9992 -0.0305
vn -0.9748 0.2232 -0.0000
vn -0.9587 -0.2843 -0.0000
vn 0.0185 -0.5469 -0.8370
vn -0.9589 -0.2838 -0.0000
vn -0.9794 -0.1795 -0.0921
vn -0.9719 0.1958 -0.1304
vn 0.0160 -0.5707 -0.8210
vn 0.0073 -0.5360 -0.8442
vn 0.0254 -0.9992 -0.0305
vn -0.0000 1.0000 -0.0000
vt 0.500000 0.627729
vt 0.625000 0.627729
vt 0.625000 0.750000
vt 0.500000 0.750000
vt 0.250000 0.627729
vt 0.375000 0.627729
vt 0.375000 0.750000
vt 0.250000 0.750000
vt 0.750000 0.627729
vt 0.750000 0.750000
vt 0.000000 0.000000
vt 0.268721 0.750000
vt 0.356213 0.750000
vt 0.268787 0.750000
vt 0.356278 0.750000
s 0
usemtl BodyBlack
f 18/1/1 5/2/1 1/3/1 16/4/1
f 7/5/2 4/6/2 23/7/2 24/8/2
f 5/2/3 6/9/3 3/10/3 1/3/3
f 17/11/4 24/11/4 25/11/4 20/11/4
f 20/11/4 25/11/4 14/11/4 22/11/4
f 16/4/5 1/3/5 8/3/5 19/4/5
f 1/3/6 3/10/6 11/10/6 8/3/6
f 25/8/8 26/7/8 13/7/8 14/8/8
f 8/3/9 11/10/9 15/10/9 12/3/9
f 19/4/10 8/3/10 12/3/10 21/4/10
f 26/7/10 19/4/10 21/4/10 13/7/10
f 23/7/11 16/4/11 19/4/11 26/7/11
f 11/11/4 20/11/4 22/11/4 15/11/4
f 3/11/4 17/11/4 20/11/4 11/11/4
f 4/6/12 18/1/12 16/4/12 23/7/12
f 9/15/13 2/12/13 24/8/13 23/7/13
f 10/14/14 9/13/14 26/7/14 25/8/14
f 2/12/15 10/14/15 25/8/15 24/8/15
f 9/15/16 23/7/16 26/7/16
f 13/7/17 21/4/17 12/3/17 15/10/17 28/11/17 27/11/17
f 37/1/18 36/4/18 29/3/18 31/2/18
f 7/5/2 24/8/2 40/7/2 30/6/2
f 31/2/3 29/3/3 3/10/3 6/9/3
f 36/4/19 38/4/19 32/3/19 29/3/19
f 29/3/6 32/3/6 11/10/6 3/10/6
f 25/8/8 14/8/8 35/7/8 41/7/8
f 32/3/9 34/3/9 15/10/9 11/10/9
f 38/4/21 39/4/21 34/3/21 32/3/21
f 41/7/21 35/7/21 39/4/21 38/4/21
f 40/7/22 41/7/22 38/4/22 36/4/22
f 30/6/23 40/7/23 36/4/23 37/1/23
f 33/15/24 40/7/24 24/8/24 2/12/24
f 10/14/25 25/8/25 41/7/25 33/13/25
f 33/15/16 41/7/16 40/7/16
f 35/7/26 42/11/26 28/11/26 15/10/26 34/3/26 39/4/26
f 5/2/27 18/1/27 4/6/27 7/5/27 30/6/27 37/1/27 31/2/27 6/9/27
usemtl White
f 2/12/7 9/13/7 10/14/7
f 2/12/20 10/14/20 33/13/20
