# Blender 4.5.4 LTS
# www.blender.org
mtllib Cube.mtl
o Link_Front_Claws_L
v -0.020120 0.001937 -0.027092
v -0.019457 -0.003000 0.009000
v -0.020120 0.006180 -0.022850
v -0.019457 0.003000 0.009000
v 0.020120 0.001937 -0.027092
v 0.019457 -0.003000 0.009000
v 0.020120 0.006180 -0.022850
v 0.019457 0.003000 0.009000
v -0.019907 -0.006180 -0.018975
v -0.019907 -0.001937 -0.014733
v 0.019907 -0.001937 -0.014733
v 0.019907 -0.006180 -0.018975
v -0.020120 0.018201 -0.026113
v -0.020120 0.018201 -0.032113
v 0.020120 0.018201 -0.026113
v 0.020120 0.018201 -0.032113
v -0.020120 0.072611 -0.026113
v -0.020120 0.072611 -0.032113
v 0.020120 0.072611 -0.026113
v 0.020120 0.072611 -0.032113
vn -0.9998 -0.0077 0.0186
vn -0.0000 0.9790 -0.2037
vn 0.9998 -0.0077 0.0186
vn -0.0000 -0.9936 0.1129
vn 1.0000 -0.0000 -0.0000
vn -0.0000 -0.0000 1.0000
vn -0.0000 -0.7071 -0.7071
vn 0.9998 -0.0131 0.0131
vn -0.0000 0.7071 0.7071
vn -0.9998 -0.0131 0.0131
vn -0.0000 -0.2950 -0.9555
vn -0.0000 0.2620 0.9651
vn -1.0000 -0.0000 -0.0000
vn -0.0000 1.0000 -0.0000
vn -0.0000 -0.0000 -1.0000
vt 0.455493 0.000000
vt 0.625000 0.000000
vt 0.625000 0.250000
vt 0.455493 0.250000
vt 0.625000 0.500000
vt 0.455493 0.500000
vt 0.625000 0.750000
vt 0.455493 0.750000
vt 0.625000 1.000000
vt 0.455493 1.000000
vt 0.375000 0.500000
vt 0.375000 0.750000
vt 0.875000 0.500000
vt 0.875000 0.750000
vt 0.375000 1.000000
vt 0.375000 0.250000
vt 0.375000 0.000000
vt 0.125000 0.500000
vt 0.125000 0.750000
s 0
usemtl Claws
f 9/1/1 2/2/1 4/3/1 10/4/1
f 10/4/2 4/3/2 8/5/2 11/6/2
f 11/6/3 8/5/3 6/7/3 12/8/3
f 12/8/4 6/7/4 2/9/4 9/10/4
f 7/11/5 5/12/5 16/12/5 15/11/5
f 8/5/6 4/13/6 2/14/6 6/7/6
f 5/12/7 12/8/7 9/10/7 1/15/7
f 7/11/8 11/6/8 12/8/8 5/12/8
f 3/16/9 10/4/9 11/6/9 7/11/9
f 1/17/10 9/1/10 10/4/10 3/16/10
f 15/11/5 16/12/5 20/12/5 19/11/5
f 5/12/11 1/15/11 14/15/11 16/12/11
f 3/16/12 7/11/12 15/11/12 13/16/12
f 1/17/13 3/16/13 13/16/13 14/17/13
f 17/18/14 19/11/14 20/12/14 18/19/14
f 14/17/13 13/16/13 17/16/13 18/17/13
f 16/12/15 14/15/15 18/15/15 20/12/15
f 13/16/6 15/11/6 19/11/6 17/16/6
