# Blender 5.0.0
# www.blender.org
mtllib Cube.001.mtl
o Cube.001
v 0.020120 -0.001937 0.027092
v 0.019457 0.003000 -0.009000
v 0.020120 -0.006180 0.022850
v 0.019457 -0.003000 -0.009000
v -0.020120 -0.001937 0.027092
v -0.019457 0.003000 -0.009000
v -0.020120 -0.006180 0.022850
v -0.019457 -0.003000 -0.009000
v 0.019907 0.006180 0.018975
v 0.019907 0.001937 0.014733
v -0.019907 0.001937 0.014733
v -0.019907 0.006180 0.018975
v 0.020120 -0.006180 0.022850
v 0.020120 -0.001937 0.027092
v -0.020120 -0.006180 0.022850
v -0.020120 -0.001937 0.027092
v 0.020120 -0.006180 0.022850
v 0.020120 -0.001937 0.027092
v -0.020120 -0.006180 0.022850
v -0.020120 -0.001937 0.027092
v 0.020120 -0.006180 0.022850
v 0.020120 -0.001937 0.027092
v -0.020120 -0.006180 0.022850
v -0.020120 -0.001937 0.027092
v 0.020120 -0.006180 0.022850
v 0.020120 -0.001937 0.027092
v -0.020120 -0.006180 0.022850
v -0.020120 -0.001937 0.027092
v 0.020120 -0.007594 0.025507
v 0.020120 -0.007594 0.031506
v -0.020120 -0.007594 0.025507
v -0.020120 -0.007594 0.031506
v 0.020120 -0.031356 0.025507
v 0.020120 -0.031356 0.031506
v -0.020120 -0.031356 0.025507
v -0.020120 -0.031356 0.031506
v 0.020120 -0.061356 0.025507
v 0.020120 -0.061356 0.031506
v -0.020120 -0.061356 0.025507
v -0.020120 -0.061356 0.031506
vn 0.9998 0.0077 -0.0186
vn -0.0000 -0.9790 0.2037
vn -0.9998 0.0077 -0.0186
vn -0.0000 0.9936 -0.1129
vn -0.0000 -0.0000 1.0000
vn -0.0000 -0.0000 -1.0000
vn -0.0000 0.7071 0.7071
vn -0.9998 0.0131 -0.0131
vn -0.0000 -0.7071 -0.7071
vn 0.9998 0.0131 -0.0131
vn -0.0000 0.6152 0.7884
vn -0.0000 -0.8828 -0.4698
vn -1.0000 -0.0000 -0.0000
vn 1.0000 -0.0000 -0.0000
vn -0.0000 -1.0000 -0.0000
vt 0.455493 0.000000
vt 0.455493 0.250000
vt 0.625000 0.250000
vt 0.625000 0.000000
vt 0.455493 0.500000
vt 0.625000 0.500000
vt 0.455493 0.750000
vt 0.625000 0.750000
vt 0.455493 1.000000
vt 0.625000 1.000000
vt 0.375000 0.750000
vt 0.375000 0.500000
vt 0.875000 0.750000
vt 0.875000 0.500000
vt 0.375000 1.000000
vt 0.375000 0.250000
vt 0.375000 0.000000
vt 0.125000 0.500000
vt 0.125000 0.750000
s 0
usemtl Claws
f 9/1/1 10/2/1 4/3/1 2/4/1
f 10/2/2 11/5/2 8/6/2 4/3/2
f 11/5/3 12/7/3 6/8/3 8/6/3
f 12/7/4 9/9/4 2/10/4 6/8/4
f 5/11/5 7/12/5 15/12/5 16/11/5
f 8/6/6 6/8/6 2/13/6 4/14/6
f 5/11/7 1/15/7 9/9/7 12/7/7
f 7/12/8 5/11/8 12/7/8 11/5/8
f 3/16/9 7/12/9 11/5/9 10/2/9
f 1/17/10 3/16/10 10/2/10 9/1/10
f 13/16/5 14/17/5 18/17/5 17/16/5
f 1/15/5 5/11/5 16/11/5 14/15/5
f 7/12/5 3/16/5 13/16/5 15/12/5
f 3/16/5 1/17/5 14/17/5 13/16/5
f 18/15/5 20/11/5 24/11/5 22/15/5
f 14/15/5 16/11/5 20/11/5 18/15/5
f 15/12/5 13/16/5 17/16/5 19/12/5
f 16/11/5 15/12/5 19/12/5 20/11/5
f 24/11/5 23/12/5 27/12/5 28/11/5
f 19/12/5 17/16/5 21/16/5 23/12/5
f 20/11/5 19/12/5 23/12/5 24/11/5
f 17/16/5 18/17/5 22/17/5 21/16/5
f 26/15/11 28/11/11 32/11/11 30/15/11
f 21/16/5 22/17/5 26/17/5 25/16/5
f 22/15/5 24/11/5 28/11/5 26/15/5
f 23/12/5 21/16/5 25/16/5 27/12/5
f 31/12/6 29/16/6 33/16/6 35/12/6
f 27/12/12 25/16/12 29/16/12 31/12/12
f 28/11/13 27/12/13 31/12/13 32/11/13
f 25/16/14 26/17/14 30/17/14 29/16/14
f 36/11/13 35/12/13 39/12/13 40/11/13
f 32/11/13 31/12/13 35/12/13 36/11/13
f 29/16/14 30/17/14 34/17/14 33/16/14
f 30/15/5 32/11/5 36/11/5 34/15/5
f 37/18/15 38/19/15 40/11/15 39/12/15
f 33/16/14 34/17/14 38/17/14 37/16/14
f 34/15/5 36/11/5 40/11/5 38/15/5
f 35/12/6 33/16/6 37/16/6 39/12/6
