# Blender 4.5.3 LTS
# www.blender.org
mtllib Cylinder.001.mtl
o Link_Front_Upper_R
v 0.023655 0.039607 -0.107478
v 0.029862 0.049999 0.107478
v 0.015928 0.038846 -0.107478
v 0.020107 0.049038 0.107478
v 0.008498 0.036592 -0.107478
v 0.010728 0.046193 0.107478
v 0.001651 0.032932 -0.107478
v 0.002084 0.041573 0.107478
v -0.004351 0.028006 -0.107478
v -0.005493 0.035355 0.107478
v -0.009277 0.022004 -0.107478
v -0.011711 0.027778 0.107478
v -0.012937 0.015157 -0.107478
v -0.016331 0.019134 0.107478
v -0.015191 0.007727 -0.107478
v -0.019177 0.009754 0.107478
v -0.015952 0.000000 -0.107478
v -0.020137 -0.000000 0.107478
v -0.015191 -0.007727 -0.107478
v -0.019177 -0.009754 0.107478
v -0.012937 -0.015157 -0.107478
v -0.016331 -0.019134 0.107478
v -0.009277 -0.022004 -0.107478
v -0.011711 -0.027778 0.107478
v -0.004351 -0.028006 -0.107478
v -0.005493 -0.035355 0.107478
v 0.001651 -0.032932 -0.107478
v 0.002084 -0.041573 0.107478
v 0.008498 -0.036592 -0.107478
v 0.010728 -0.046193 0.107478
v 0.015928 -0.038846 -0.107478
v 0.020107 -0.049038 0.107478
v 0.023655 -0.039607 -0.107478
v 0.029862 -0.049999 0.107478
vn -0.0979 0.9942 -0.0452
vn -0.2901 0.9562 -0.0397
vn -0.4711 0.8814 -0.0345
vn -0.6341 0.7727 -0.0298
vn -0.7728 0.6342 -0.0258
vn -0.8817 0.4713 -0.0226
vn -0.9567 0.2902 -0.0205
vn -0.9950 0.0980 -0.0194
vn -0.9950 -0.0980 -0.0194
vn -0.9567 -0.2902 -0.0205
vn -0.8817 -0.4713 -0.0226
vn -0.7728 -0.6342 -0.0258
vn -0.6341 -0.7727 -0.0298
vn -0.4711 -0.8814 -0.0345
vn -0.2901 -0.9562 -0.0397
vn -0.0979 -0.9942 -0.0452
vn -0.0000 -0.0000 -1.0000
vn -0.0000 -0.0000 1.0000
vn 0.9996 -0.0000 -0.0289
vt 1.000000 0.500000
vt 0.968750 0.500000
vt 0.968750 1.000000
vt 1.000000 1.000000
vt 0.937500 0.500000
vt 0.937500 1.000000
vt 0.906250 0.500000
vt 0.906250 1.000000
vt 0.875000 0.500000
vt 0.875000 1.000000
vt 0.843750 0.500000
vt 0.843750 1.000000
vt 0.812500 0.500000
vt 0.812500 1.000000
vt 0.781250 0.500000
vt 0.781250 1.000000
vt 0.750000 0.500000
vt 0.750000 1.000000
vt 0.718750 0.500000
vt 0.718750 1.000000
vt 0.687500 0.500000
vt 0.687500 1.000000
vt 0.656250 0.500000
vt 0.656250 1.000000
vt 0.625000 0.500000
vt 0.625000 1.000000
vt 0.593750 0.500000
vt 0.593750 1.000000
vt 0.562500 0.500000
vt 0.562500 1.000000
vt 0.531250 0.500000
vt 0.531250 1.000000
vt 0.500000 0.500000
vt 0.500000 1.000000
s 0
usemtl Material.003
f 1/1/1 3/2/1 4/3/1 2/4/1
f 3/2/2 5/5/2 6/6/2 4/3/2
f 5/5/3 7/7/3 8/8/3 6/6/3
f 7/7/4 9/9/4 10/10/4 8/8/4
f 9/9/5 11/11/5 12/12/5 10/10/5
f 11/11/6 13/13/6 14/14/6 12/12/6
f 13/13/7 15/15/7 16/16/7 14/14/7
f 15/15/8 17/17/8 18/18/8 16/16/8
f 17/17/9 19/19/9 20/20/9 18/18/9
f 19/19/10 21/21/10 22/22/10 20/20/10
f 21/21/11 23/23/11 24/24/11 22/22/11
f 23/23/12 25/25/12 26/26/12 24/24/12
f 25/25/13 27/27/13 28/28/13 26/26/13
f 27/27/14 29/29/14 30/30/14 28/28/14
f 29/29/15 31/31/15 32/32/15 30/30/15
f 31/31/16 33/33/16 34/34/16 32/32/16
f 1/1/17 33/33/17 31/31/17 29/29/17 27/27/17 25/25/17 23/23/17 21/21/17 19/19/17 17/17/17 15/15/17 13/13/17 11/11/17 9/9/17 7/7/17 5/5/17 3/2/17
f 4/3/18 6/6/18 8/8/18 10/10/18 12/12/18 14/14/18 16/16/18 18/18/18 20/20/18 22/22/18 24/24/18 26/26/18 28/28/18 30/30/18 32/32/18 34/34/18 2/4/18
f 1/1/19 2/4/19 34/34/19 33/33/19
