# Blender 4.5.4 LTS
# www.blender.org
mtllib Cylinder.002.mtl
o Link_Back_Foot_R
v 0.030301 -0.076466 -0.024648
v 0.032002 -0.061907 0.011898
v 0.021205 0.078583 -0.018624
v 0.021205 0.064898 0.031375
v -0.032002 -0.081574 -0.024648
v -0.030302 -0.067015 0.011898
v -0.021205 0.078583 -0.018624
v -0.021205 0.064898 0.031375
vn 0.9972 0.0722 -0.0203
vn -0.0000 0.9645 0.2640
vn -0.9976 0.0663 0.0189
vn 0.0760 -0.9275 0.3660
vn -0.0019 0.0382 -0.9993
vn 0.0073 -0.1488 0.9888
vt 0.375000 0.000000
vt 0.375000 0.250000
vt 0.625000 0.250000
vt 0.625000 0.000000
vt 0.375000 0.500000
vt 0.625000 0.500000
vt 0.375000 0.750000
vt 0.625000 0.750000
vt 0.375000 1.000000
vt 0.625000 1.000000
vt 0.125000 0.500000
vt 0.125000 0.750000
vt 0.875000 0.750000
vt 0.875000 0.500000
s 0
usemtl Material.010
f 1/1/1 3/2/1 4/3/1 2/4/1
f 3/2/2 7/5/2 8/6/2 4/3/2
f 7/5/3 5/7/3 6/8/3 8/6/3
f 5/7/4 1/9/4 2/10/4 6/8/4
f 8/6/6 6/8/6 2/13/6 4/14/6
usemtl Material.011
f 3/11/5 1/12/5 5/7/5 7/5/5
