# Blender 4.5.3 LTS
# www.blender.org
mtllib Cylinder.007.mtl
o Link_Back_Upper_R
v 0.594887 -0.209220 0.300000
v 0.594887 -0.209220 -0.300000
v 0.562398 -0.205377 0.300000
v 0.562398 -0.205377 -0.300000
v 0.531158 -0.193996 0.300000
v 0.531158 -0.193996 -0.300000
v 0.502366 -0.175514 0.300000
v 0.502366 -0.175514 -0.300000
v 0.477131 -0.150642 0.300000
v 0.477131 -0.150642 -0.300000
v 0.456420 -0.120334 0.300000
v 0.456420 -0.120334 -0.300000
v 0.441031 -0.085757 0.300000
v 0.441031 -0.085757 -0.300000
v 0.431554 -0.048238 0.300000
v 0.431554 -0.048238 -0.300000
v 0.428354 -0.009220 0.300000
v 0.428354 -0.009220 -0.300000
v 0.431554 0.029798 0.300000
v 0.431554 0.029798 -0.300000
v 0.441031 0.067316 0.300000
v 0.441031 0.067316 -0.300000
v 0.456420 0.101894 0.300000
v 0.456420 0.101894 -0.300000
v 0.477131 0.132201 0.300000
v 0.477131 0.132201 -0.300000
v 0.502366 0.157073 0.300000
v 0.502366 0.157073 -0.300000
v 0.531158 0.175555 0.300000
v 0.531158 0.175555 -0.300000
v 0.562398 0.186937 0.300000
v 0.562398 0.186937 -0.300000
v 0.594887 0.190780 0.300000
v 0.594887 0.190780 -0.300000
vn 0.1175 0.9931 -0.0000
vn 0.3423 0.9396 -0.0000
vn 0.5402 0.8415 -0.0000
vn 0.7020 0.7122 -0.0000
vn 0.8256 0.5642 -0.0000
vn 0.9136 0.4066 -0.0000
vn 0.9695 0.2449 -0.0000
vn 0.9967 0.0817 -0.0000
vn 0.9967 -0.0817 -0.0000
vn 0.9695 -0.2449 -0.0000
vn 0.9136 -0.4066 -0.0000
vn 0.8256 -0.5642 -0.0000
vn 0.7020 -0.7122 -0.0000
vn 0.5402 -0.8415 -0.0000
vn 0.3423 -0.9396 -0.0000
vn 0.1175 -0.9931 -0.0000
vn -0.0000 -0.0000 -1.0000
vn -0.0000 -0.0000 1.0000
vn -1.0000 -0.0000 -0.0000
vt 1.000000 0.500000
vt 1.000000 1.000000
vt 0.968750 1.000000
vt 0.968750 0.500000
vt 0.937500 1.000000
vt 0.937500 0.500000
vt 0.906250 1.000000
vt 0.906250 0.500000
vt 0.875000 1.000000
vt 0.875000 0.500000
vt 0.843750 1.000000
vt 0.843750 0.500000
vt 0.812500 1.000000
vt 0.812500 0.500000
vt 0.781250 1.000000
vt 0.781250 0.500000
vt 0.750000 1.000000
vt 0.750000 0.500000
vt 0.718750 1.000000
vt 0.718750 0.500000
vt 0.687500 1.000000
vt 0.687500 0.500000
vt 0.656250 1.000000
vt 0.656250 0.500000
vt 0.625000 1.000000
vt 0.625000 0.500000
vt 0.593750 1.000000
vt 0.593750 0.500000
vt 0.562500 1.000000
vt 0.562500 0.500000
vt 0.531250 1.000000
vt 0.531250 0.500000
vt 0.500000 1.000000
vt 0.500000 0.500000
s 0
usemtl Material.008
f 1/1/1 2/2/1 4/3/1 3/4/1
f 3/4/2 4/3/2 6/5/2 5/6/2
f 5/6/3 6/5/3 8/7/3 7/8/3
f 7/8/4 8/7/4 10/9/4 9/10/4
f 9/10/5 10/9/5 12/11/5 11/12/5
f 11/12/6 12/11/6 14/13/6 13/14/6
f 13/14/7 14/13/7 16/15/7 15/16/7
f 15/16/8 16/15/8 18/17/8 17/18/8
f 17/18/9 18/17/9 20/19/9 19/20/9
f 19/20/10 20/19/10 22/21/10 21/22/10
f 21/22/11 22/21/11 24/23/11 23/24/11
f 23/24/12 24/23/12 26/25/12 25/26/12
f 25/26/13 26/25/13 28/27/13 27/28/13
f 27/28/14 28/27/14 30/29/14 29/30/14
f 29/30/15 30/29/15 32/31/15 31/32/15
f 31/32/16 32/31/16 34/33/16 33/34/16
f 1/1/17 3/4/17 5/6/17 7/8/17 9/10/17 11/12/17 13/14/17 15/16/17 17/18/17 19/20/17 21/22/17 23/24/17 25/26/17 27/28/17 29/30/17 31/32/17 33/34/17
f 4/3/18 2/2/18 34/33/18 32/31/18 30/29/18 28/27/18 26/25/18 24/23/18 22/21/18 20/19/18 18/17/18 16/15/18 14/13/18 12/11/18 10/9/18 8/7/18 6/5/18
f 1/1/19 33/34/19 34/33/19 2/2/19
