# Blender 5.0.0
# www.blender.org
mtllib Cylinder.005.mtl
o Link_Back_Lower_R
v 0.026134 0.032300 -0.074999
v 0.026134 0.050000 0.074999
v 0.017597 0.031679 -0.074999
v 0.017597 0.049039 0.074999
v 0.009389 0.029841 -0.074999
v 0.009389 0.046194 0.074999
v 0.001824 0.026856 -0.074999
v 0.001824 0.041573 0.074999
v -0.004807 0.022839 -0.074999
v -0.004807 0.035355 0.074999
v -0.010249 0.017945 -0.074999
v -0.010249 0.027778 0.074999
v -0.014292 0.012361 -0.074999
v -0.014293 0.019134 0.074999
v -0.016782 0.006301 -0.074999
v -0.016783 0.009754 0.074999
v -0.017623 0.000000 -0.074999
v -0.017623 0.000000 0.074999
v -0.016782 -0.006301 -0.074999
v -0.016783 -0.009754 0.074999
v -0.014292 -0.012361 -0.074999
v -0.014293 -0.019134 0.074999
v -0.010249 -0.017945 -0.074999
v -0.010249 -0.027778 0.074999
v -0.004807 -0.022839 -0.074999
v -0.004807 -0.035355 0.074999
v 0.001824 -0.026856 -0.074999
v 0.001823 -0.041573 0.074999
v 0.009389 -0.029841 -0.074999
v 0.009388 -0.046194 0.074999
v 0.017597 -0.031679 -0.074999
v 0.017597 -0.049039 0.074999
v 0.026134 -0.032300 -0.074999
v 0.026134 -0.050000 0.074999
vn -0.0916 0.9891 -0.1156
vn -0.2727 0.9561 -0.1074
vn -0.4472 0.8897 -0.0921
vn -0.6094 0.7896 -0.0717
vn -0.7525 0.6567 -0.0489
vn -0.8691 0.4940 -0.0273
vn -0.9517 0.3070 -0.0105
vn -0.9946 0.1042 -0.0012
vn -0.9946 -0.1042 -0.0012
vn -0.9517 -0.3070 -0.0105
vn -0.8691 -0.4940 -0.0273
vn -0.7525 -0.6567 -0.0489
vn -0.6094 -0.7896 -0.0717
vn -0.4472 -0.8897 -0.0921
vn -0.2727 -0.9561 -0.1074
vn -0.0916 -0.9891 -0.1156
vn -0.0000 -0.0000 -1.0000
vn -0.0000 -0.0000 1.0000
vn 1.0000 -0.0000 -0.0000
vt 1.000000 0.500000
vt 0.968750 0.500000
vt 0.968750 1.000000
vt 1.000000 1.000000
vt 0.937500 0.500000
vt 0.937500 1.000000
vt 0.906250 0.500000
vt 0.906250 1.000000
vt 0.875000 0.500000
vt 0.875000 1.000000
vt 0.843750 0.500000
vt 0.843750 1.000000
vt 0.812500 0.500000
vt 0.812500 1.000000
vt 0.781250 0.500000
vt 0.781250 1.000000
vt 0.750000 0.500000
vt 0.750000 1.000000
vt 0.718750 0.500000
vt 0.718750 1.000000
vt 0.687500 0.500000
vt 0.687500 1.000000
vt 0.656250 0.500000
vt 0.656250 1.000000
vt 0.625000 0.500000
vt 0.625000 1.000000
vt 0.593750 0.500000
vt 0.593750 1.000000
vt 0.562500 0.500000
vt 0.562500 1.000000
vt 0.531250 0.500000
vt 0.531250 1.000000
vt 0.500000 0.500000
vt 0.500000 1.000000
s 0
usemtl Material.010
f 1/1/1 3/2/1 4/3/1 2/4/1
f 3/2/2 5/5/2 6/6/2 4/3/2
f 5/5/3 7/7/3 8/8/3 6/6/3
f 7/7/4 9/9/4 10/10/4 8/8/4
f 9/9/5 11/11/5 12/12/5 10/10/5
f 11/11/6 13/13/6 14/14/6 12/12/6
f 13/13/7 15/15/7 16/16/7 14/14/7
f 15/15/8 17/17/8 18/18/8 16/16/8
f 17/17/9 19/19/9 20/20/9 18/18/9
f 19/19/10 21/21/10 22/22/10 20/20/10
f 21/21/11 23/23/11 24/24/11 22/22/11
f 23/23/12 25/25/12 26/26/12 24/24/12
f 25/25/13 27/27/13 28/28/13 26/26/13
f 27/27/14 29/29/14 30/30/14 28/28/14
f 29/29/15 31/31/15 32/32/15 30/30/15
f 31/31/16 33/33/16 34/34/16 32/32/16
f 1/1/17 33/33/17 31/31/17 29/29/17 27/27/17 25/25/17 23/23/17 21/21/17 19/19/17 17/17/17 15/15/17 13/13/17 11/11/17 9/9/17 7/7/17 5/5/17 3/2/17
f 4/3/18 6/6/18 8/8/18 10/10/18 12/12/18 14/14/18 16/16/18 18/18/18 20/20/18 22/22/18 24/24/18 26/26/18 28/28/18 30/30/18 32/32/18 34/34/18 2/4/18
f 1/1/19 2/4/19 34/34/19 33/33/19
