# Blender 4.5.4 LTS
# www.blender.org
mtllib Cylinder.024.mtl
o Link_Front_Foot_L
v -0.023945 -0.043652 -0.018805
v -0.013716 -0.035516 0.009077
v -0.016006 0.038040 -0.014209
v -0.016006 0.038040 0.023937
v 0.023084 -0.039796 -0.018805
v 0.014577 -0.033196 0.009077
v 0.016006 0.038040 -0.014209
v 0.016006 0.038040 0.023937
vn -0.9884 0.0170 0.1510
vn -0.0000 1.0000 -0.0000
vn 0.9918 0.0212 0.1257
vn 0.0791 -0.9644 0.2524
vn -0.0028 0.0575 -0.9983
vn 0.0077 -0.2010 0.9796
vt 0.375000 0.000000
vt 0.625000 0.000000
vt 0.625000 0.250000
vt 0.375000 0.250000
vt 0.625000 0.500000
vt 0.375000 0.500000
vt 0.625000 0.750000
vt 0.375000 0.750000
vt 0.625000 1.000000
vt 0.375000 1.000000
vt 0.125000 0.500000
vt 0.125000 0.750000
vt 0.875000 0.500000
vt 0.875000 0.750000
s 0
usemtl Material.005
f 1/1/1 2/2/1 4/3/1 3/4/1
f 3/4/2 4/3/2 8/5/2 7/6/2
f 7/6/3 8/5/3 6/7/3 5/8/3
f 5/8/4 6/7/4 2/9/4 1/10/4
f 8/5/6 4/13/6 2/14/6 6/7/6
usemtl Material.006
f 3/11/5 7/6/5 5/8/5 1/12/5
