# Blender 4.5.4 LTS
# www.blender.org
mtllib Cylinder.011.mtl
o Link_Front_Lower_R
v 0.019901 0.024265 -0.070330
v 0.024363 0.039186 0.070330
v 0.013430 0.023778 -0.070330
v 0.016375 0.038453 0.070330
v 0.007208 0.022338 -0.070330
v 0.008694 0.036283 0.070330
v 0.001473 0.020000 -0.070330
v 0.001615 0.032758 0.070330
v -0.003553 0.016853 -0.070330
v -0.004589 0.028014 0.070330
v -0.007678 0.013018 -0.070330
v -0.009681 0.022233 0.070330
v -0.010743 0.008643 -0.070330
v -0.013465 0.015638 0.070330
v -0.012631 0.003896 -0.070330
v -0.015795 0.008483 0.070330
v -0.013268 -0.001041 -0.070330
v -0.016582 0.001041 0.070330
v -0.012631 -0.005978 -0.070330
v -0.015795 -0.006401 0.070330
v -0.010743 -0.010725 -0.070330
v -0.013465 -0.013557 0.070330
v -0.007678 -0.015100 -0.070330
v -0.009681 -0.020152 0.070330
v -0.003553 -0.018934 -0.070330
v -0.004589 -0.025932 0.070330
v 0.001473 -0.022081 -0.070330
v 0.001615 -0.030676 0.070330
v 0.007208 -0.024420 -0.070330
v 0.008694 -0.034201 0.070330
v 0.013430 -0.025860 -0.070330
v 0.016375 -0.036372 0.070330
v 0.019901 -0.026346 -0.070330
v 0.024363 -0.037105 0.070330
vn -0.0836 0.9913 -0.1021
vn -0.2503 0.9636 -0.0941
vn -0.4147 0.9061 -0.0836
vn -0.5734 0.8161 -0.0712
vn -0.7207 0.6908 -0.0578
vn -0.8474 0.5291 -0.0447
vn -0.9421 0.3338 -0.0335
vn -0.9931 0.1143 -0.0256
vn -0.9932 -0.1143 -0.0222
vn -0.9423 -0.3339 -0.0236
vn -0.8479 -0.5294 -0.0291
vn -0.7214 -0.6915 -0.0374
vn -0.5743 -0.8173 -0.0471
vn -0.4154 -0.9078 -0.0569
vn -0.2508 -0.9658 -0.0657
vn -0.0838 -0.9938 -0.0729
vn -0.0000 -0.0000 -1.0000
vn -0.0000 -0.0000 1.0000
vn 0.9995 -0.0000 -0.0317
vt 1.000000 0.500000
vt 0.968750 0.500000
vt 0.968750 1.000000
vt 1.000000 1.000000
vt 0.937500 0.500000
vt 0.937500 1.000000
vt 0.906250 0.500000
vt 0.906250 1.000000
vt 0.875000 0.500000
vt 0.875000 1.000000
vt 0.843750 0.500000
vt 0.843750 1.000000
vt 0.812500 0.500000
vt 0.812500 1.000000
vt 0.781250 0.500000
vt 0.781250 1.000000
vt 0.750000 0.500000
vt 0.750000 1.000000
vt 0.718750 0.500000
vt 0.718750 1.000000
vt 0.687500 0.500000
vt 0.687500 1.000000
vt 0.656250 0.500000
vt 0.656250 1.000000
vt 0.625000 0.500000
vt 0.625000 1.000000
vt 0.593750 0.500000
vt 0.593750 1.000000
vt 0.562500 0.500000
vt 0.562500 1.000000
vt 0.531250 0.500000
vt 0.531250 1.000000
vt 0.500000 0.500000
vt 0.500000 1.000000
s 0
usemtl Material.005
f 1/1/1 3/2/1 4/3/1 2/4/1
f 3/2/2 5/5/2 6/6/2 4/3/2
f 5/5/3 7/7/3 8/8/3 6/6/3
f 7/7/4 9/9/4 10/10/4 8/8/4
f 9/9/5 11/11/5 12/12/5 10/10/5
f 11/11/6 13/13/6 14/14/6 12/12/6
f 13/13/7 15/15/7 16/16/7 14/14/7
f 15/15/8 17/17/8 18/18/8 16/16/8
f 17/17/9 19/19/9 20/20/9 18/18/9
f 19/19/10 21/21/10 22/22/10 20/20/10
f 21/21/11 23/23/11 24/24/11 22/22/11
f 23/23/12 25/25/12 26/26/12 24/24/12
f 25/25/13 27/27/13 28/28/13 26/26/13
f 27/27/14 29/29/14 30/30/14 28/28/14
f 29/29/15 31/31/15 32/32/15 30/30/15
f 31/31/16 33/33/16 34/34/16 32/32/16
f 1/1/17 33/33/17 31/31/17 29/29/17 27/27/17 25/25/17 23/23/17 21/21/17 19/19/17 17/17/17 15/15/17 13/13/17 11/11/17 9/9/17 7/7/17 5/5/17 3/2/17
f 4/3/18 6/6/18 8/8/18 10/10/18 12/12/18 14/14/18 16/16/18 18/18/18 20/20/18 22/22/18 24/24/18 26/26/18 28/28/18 30/30/18 32/32/18 34/34/18 2/4/18
f 1/1/19 2/4/19 34/34/19 33/33/19
