# Blender 4.5.4 LTS
# www.blender.org
mtllib Torus.005.mtl
o Torus.001
v 0.011919 0.000000 0.000000
v 0.011819 0.000000 0.001250
v 0.011544 0.000000 0.002165
v 0.011169 0.000000 0.002500
v 0.010794 0.000000 0.002165
v 0.010520 0.000000 0.001250
v 0.010419 0.000000 0.000000
v 0.010520 0.000000 -0.001250
v 0.010794 0.000000 -0.002165
v 0.011169 0.000000 -0.002500
v 0.011544 0.000000 -0.002165
v 0.011819 0.000000 -0.001250
v -0.030413 0.050000 -0.003125
v -0.028125 0.050000 -0.005413
v -0.025000 0.050000 -0.006250
v -0.021875 0.050000 -0.005413
v -0.019587 0.050000 -0.003125
v -0.018750 0.050000 0.000000
v -0.019587 0.050000 0.003125
v -0.021875 0.050000 0.005413
v -0.025000 0.050000 0.006250
v -0.028125 0.050000 0.005413
v -0.030413 0.050000 0.003125
v -0.031250 0.050000 0.000000
v -0.031250 0.000000 0.000000
v -0.030413 0.000000 0.003125
v -0.028125 0.000000 0.005413
v -0.024766 0.000000 0.006210
v -0.020512 0.000000 0.005190
v -0.016893 0.000000 0.002853
v -0.015477 0.000000 0.000000
v -0.016893 0.000000 -0.002853
v -0.020512 0.000000 -0.005190
v -0.024766 0.000000 -0.006210
v -0.028125 0.000000 -0.005413
v -0.030413 0.000000 -0.003125
v -0.030983 -0.004079 0.000000
v -0.030152 -0.003970 0.003125
v -0.027884 -0.003671 0.005413
v -0.024546 -0.003241 0.006208
v -0.020316 -0.002737 0.005188
v -0.016719 -0.002332 0.002850
v -0.015311 -0.002179 0.000000
v -0.016719 -0.002332 -0.002850
v -0.020316 -0.002737 -0.005188
v -0.024546 -0.003241 -0.006208
v -0.027884 -0.003671 -0.005413
v -0.030152 -0.003970 -0.003125
v -0.030185 -0.008088 0.000000
v -0.029376 -0.007871 0.003125
v -0.027167 -0.007279 0.005413
v -0.023887 -0.006423 0.006204
v -0.019730 -0.005418 0.005179
v -0.016200 -0.004614 0.002844
v -0.014819 -0.004310 0.000000
v -0.016200 -0.004614 -0.002844
v -0.019730 -0.005418 -0.005179
v -0.023887 -0.006423 -0.006204
v -0.027167 -0.007279 -0.005413
v -0.029376 -0.007871 -0.003125
v -0.028871 -0.011959 0.000000
v -0.028098 -0.011638 0.003125
v -0.025984 -0.010763 0.005413
v -0.022802 -0.009485 0.006196
v -0.018768 -0.007988 0.005165
v -0.015348 -0.006796 0.002833
v -0.014012 -0.006346 0.000000
v -0.015348 -0.006796 -0.002833
v -0.018768 -0.007988 -0.005165
v -0.022802 -0.009485 -0.006196
v -0.025984 -0.010763 -0.005413
v -0.028098 -0.011638 -0.003125
v -0.027063 -0.015625 0.000000
v -0.026338 -0.015206 0.003125
v -0.024357 -0.014062 0.005413
v -0.021307 -0.012370 0.006185
v -0.017447 -0.010396 0.005145
v -0.014182 -0.008831 0.002818
v -0.012907 -0.008242 0.000000
v -0.014182 -0.008831 -0.002818
v -0.017447 -0.010396 -0.005145
v -0.021307 -0.012370 -0.006185
v -0.024357 -0.014062 -0.005413
v -0.026338 -0.015206 -0.003125
v -0.024792 -0.019024 0.000000
v -0.024128 -0.018514 0.003125
v -0.022313 -0.017121 0.005413
v -0.019429 -0.015021 0.006169
v -0.015795 -0.012593 0.005118
v -0.012728 -0.010676 0.002798
v -0.011531 -0.009957 0.000000
v -0.012728 -0.010676 -0.002798
v -0.015795 -0.012593 -0.005118
v -0.019429 -0.015021 -0.006169
v -0.022313 -0.017121 -0.005413
v -0.024128 -0.018514 -0.003125
v -0.022097 -0.022097 0.000000
v -0.021505 -0.021505 0.003125
v -0.019881 -0.019883 0.005412
v -0.017202 -0.017388 0.006147
v -0.013846 -0.014532 0.005085
v -0.011019 -0.012293 0.002774
v -0.009914 -0.011455 0.000000
v -0.011019 -0.012293 -0.002774
v -0.013846 -0.014532 -0.005085
v -0.017202 -0.017388 -0.006147
v -0.019881 -0.019883 -0.005412
v -0.021505 -0.021505 -0.003125
v -0.019024 -0.024792 0.000000
v -0.018514 -0.024128 0.003125
v -0.017093 -0.022291 0.005407
v -0.014666 -0.019421 0.006120
v -0.011641 -0.016175 0.005045
v -0.009093 -0.013647 0.002744
v -0.008096 -0.012705 0.000000
v -0.009093 -0.013647 -0.002744
v -0.011641 -0.016175 -0.005045
v -0.014666 -0.019421 -0.006120
v -0.017093 -0.022291 -0.005407
v -0.018514 -0.024128 -0.003125
v -0.015625 -0.027063 0.000000
v -0.015206 -0.026338 0.003125
v -0.013995 -0.024293 0.005398
v -0.011872 -0.021080 0.006085
v -0.009228 -0.017489 0.004997
v -0.006994 -0.014714 0.002711
v -0.006120 -0.013683 0.000000
v -0.006994 -0.014714 -0.002711
v -0.009228 -0.017489 -0.004997
v -0.011872 -0.021080 -0.006085
v -0.013995 -0.024293 -0.005398
v -0.015206 -0.026338 -0.003125
v -0.011959 -0.028871 0.000000
v -0.011638 -0.028098 0.003125
v -0.010646 -0.025847 0.005384
v -0.008855 -0.022310 0.006037
v -0.006652 -0.018446 0.004940
v -0.004790 -0.015480 0.002673
v -0.004122 -0.014395 0.000000
v -0.004790 -0.015480 -0.002673
v -0.006652 -0.018446 -0.004940
v -0.008855 -0.022310 -0.006037
v -0.010646 -0.025847 -0.005384
v -0.011638 -0.028098 -0.003125
v -0.008088 -0.030185 0.000000
v -0.007865 -0.029366 0.003124
v -0.007104 -0.026910 0.005362
v -0.005694 -0.023095 0.005977
v -0.003950 -0.019000 0.004867
v -0.002645 -0.015960 0.002636
v -0.002190 -0.014840 0.000000
v -0.002645 -0.015960 -0.002636
v -0.003950 -0.019000 -0.004867
v -0.005694 -0.023095 -0.005977
v -0.007104 -0.026910 -0.005362
v -0.007865 -0.029366 -0.003124
v -0.004075 -0.030974 0.000000
v -0.003940 -0.030095 0.003119
v -0.003438 -0.027451 0.005329
v -0.002463 -0.023427 0.005907
v -0.001310 -0.019192 0.004790
v -0.000622 -0.016144 0.002598
v -0.000366 -0.015005 0.000000
v -0.000622 -0.016144 -0.002598
v -0.001310 -0.019192 -0.004790
v -0.002463 -0.023427 -0.005907
v -0.003438 -0.027451 -0.005329
v -0.003940 -0.030095 -0.003119
v 0.000021 -0.031193 0.000000
v 0.000055 -0.030264 0.003110
v 0.000265 -0.027468 0.005286
v 0.000740 -0.023311 0.005828
v 0.001113 -0.019032 0.004709
v 0.001244 -0.016019 0.002556
v 0.001320 -0.014874 0.000000
v 0.001244 -0.016019 -0.002556
v 0.001113 -0.019032 -0.004709
v 0.000740 -0.023311 -0.005828
v 0.000265 -0.027468 -0.005286
v 0.000055 -0.030264 -0.003110
v 0.004114 -0.030834 0.000000
v 0.004043 -0.029852 0.003094
v 0.003911 -0.026968 0.005235
v 0.003645 -0.022771 0.005742
v 0.003282 -0.018506 0.004618
v 0.002937 -0.015543 0.002501
v 0.002840 -0.014436 0.000000
v 0.002937 -0.015543 -0.002501
v 0.003282 -0.018506 -0.004618
v 0.003645 -0.022771 -0.005742
v 0.003911 -0.026968 -0.005235
v 0.004043 -0.029852 -0.003094
v 0.008099 -0.029911 0.000000
v 0.007874 -0.028881 0.003072
v 0.007192 -0.025930 0.005166
v 0.006156 -0.021767 0.005634
v 0.005157 -0.017600 0.004509
v 0.004421 -0.014725 0.002432
v 0.004173 -0.013687 0.000000
v 0.004421 -0.014725 -0.002432
v 0.005157 -0.017600 -0.004509
v 0.006156 -0.021767 -0.005634
v 0.007192 -0.025930 -0.005166
v 0.007874 -0.028881 -0.003072
v 0.011618 -0.028396 0.000000
v 0.011191 -0.027249 0.003031
v 0.009940 -0.024300 0.005062
v 0.008247 -0.020217 0.005471
v 0.006692 -0.016318 0.004370
v 0.005672 -0.013590 0.002347
v 0.005305 -0.012640 0.000000
v 0.005672 -0.013590 -0.002347
v 0.006692 -0.016318 -0.004370
v 0.008247 -0.020217 -0.005471
v 0.009940 -0.024300 -0.005062
v 0.011191 -0.027249 -0.003031
v 0.014457 -0.025845 0.000000
v 0.013835 -0.024817 0.002945
v 0.012093 -0.021997 0.004888
v 0.009869 -0.018230 0.005263
v 0.007913 -0.014620 0.004177
v 0.009778 -0.012172 0.002242
v 0.009642 -0.011328 0.000000
v 0.006688 -0.012172 -0.002242
v 0.007913 -0.014620 -0.004177
v 0.009869 -0.018230 -0.005263
v 0.012093 -0.021997 -0.004888
v 0.013835 -0.024817 -0.002945
v 0.016504 -0.022601 0.000000
v 0.015696 -0.021662 0.002806
v 0.013607 -0.019116 0.004637
v 0.011028 -0.015754 0.004964
v 0.010416 -0.012625 0.003938
v 0.010016 -0.010529 0.002117
v 0.009863 -0.009809 0.000000
v 0.010016 -0.010529 -0.002117
v 0.008814 -0.012625 -0.003938
v 0.011028 -0.015754 -0.004964
v 0.013607 -0.019116 -0.004637
v 0.015696 -0.021662 -0.002806
v 0.017737 -0.018833 0.000000
v 0.016779 -0.018013 0.002618
v 0.014480 -0.015831 0.004309
v 0.011296 -0.013019 0.004603
v 0.010599 -0.010451 0.003657
v 0.010190 -0.008748 0.001974
v 0.010032 -0.008164 0.000000
v 0.010190 -0.008748 -0.001974
v 0.010599 -0.010451 -0.003657
v 0.011748 -0.013019 -0.004603
v 0.014480 -0.015831 -0.004309
v 0.016779 -0.018013 -0.002618
v 0.018207 -0.014790 0.000000
v 0.017025 -0.014109 0.002381
v 0.012174 -0.012375 0.003912
v 0.011382 -0.010193 0.004186
v 0.010713 -0.008226 0.003344
v 0.010308 -0.006931 0.001816
v 0.010160 -0.006486 0.000000
v 0.010308 -0.006931 -0.001816
v 0.010713 -0.008226 -0.003344
v 0.011382 -0.010193 -0.004186
v 0.014674 -0.012375 -0.003912
v 0.017025 -0.014109 -0.002381
v 0.012976 -0.010710 0.000000
v 0.012709 -0.010230 0.002102
v 0.012089 -0.008999 0.003464
v 0.011372 -0.007465 0.003732
v 0.010777 -0.006092 0.003015
v 0.010390 -0.005185 0.001654
v 0.010255 -0.004873 0.000000
v 0.010390 -0.005185 -0.001654
v 0.010777 -0.006092 -0.003015
v 0.011372 -0.007465 -0.003732
v 0.012089 -0.008999 -0.003464
v 0.012709 -0.010230 -0.002102
v 0.012602 -0.007005 0.000000
v 0.012414 -0.006717 0.001804
v 0.011917 -0.005965 0.003000
v 0.011324 -0.005023 0.003282
v 0.010798 -0.004171 0.002697
v 0.010447 -0.003600 0.001501
v 0.010326 -0.003402 0.000000
v 0.010447 -0.003600 -0.001501
v 0.010798 -0.004171 -0.002697
v 0.011324 -0.005023 -0.003282
v 0.011917 -0.005965 -0.003000
v 0.012414 -0.006717 -0.001804
v 0.012252 -0.003990 0.000000
v 0.012108 -0.003847 0.001527
v 0.011731 -0.003470 0.002580
v 0.011248 -0.002986 0.002885
v 0.010798 -0.002536 0.002424
v 0.010487 -0.002225 0.001371
v 0.010377 -0.002115 0.000000
v 0.010487 -0.002225 -0.001371
v 0.010798 -0.002536 -0.002424
v 0.011248 -0.002986 -0.002885
v 0.011731 -0.003470 -0.002580
v 0.012108 -0.003847 -0.001527
v 0.012009 -0.001737 0.000000
v 0.011897 -0.001685 0.001327
v 0.011594 -0.001546 0.002279
v 0.011191 -0.001360 0.002605
v 0.010796 -0.001179 0.002235
v 0.010512 -0.001049 0.001283
v 0.010409 -0.001002 0.000000
v 0.010512 -0.001049 -0.001283
v 0.010796 -0.001179 -0.002235
v 0.011191 -0.001360 -0.002605
v 0.011594 -0.001546 -0.002279
v 0.011897 -0.001685 -0.001327
vn -0.9659 -0.0000 -0.2588
vn 0.6164 0.0211 0.7872
vn -0.2444 -0.0010 -0.9697
vn -0.2444 -0.0010 0.9697
vn 0.6164 0.0211 -0.7872
vn -0.9659 -0.0000 0.2588
vn 0.9343 0.0548 0.3522
vn -0.7071 -0.0000 -0.7071
vn 0.2440 0.0014 0.9698
vn 0.2440 0.0014 -0.9698
vn -0.7071 -0.0000 0.7071
vn 0.9343 0.0548 -0.3522
vn -0.9640 -0.0632 0.2583
vn -0.7063 -0.0463 0.7063
vn -0.2304 -0.0156 0.9730
vn 0.2329 0.0156 0.9724
vn 0.5418 0.0388 0.8396
vn 0.8935 0.0670 0.4441
vn 0.8935 0.0670 -0.4441
vn 0.5418 0.0388 -0.8396
vn 0.2329 0.0156 -0.9724
vn -0.2304 -0.0156 -0.9730
vn -0.7063 -0.0463 -0.7063
vn -0.9640 -0.0632 -0.2583
vn -0.9475 -0.1885 0.2583
vn -0.6943 -0.1381 0.7063
vn -0.2245 -0.0461 0.9734
vn 0.2288 0.0464 0.9724
vn 0.5308 0.1156 0.8396
vn 0.8737 0.1994 0.4437
vn 0.8737 0.1994 -0.4437
vn 0.5308 0.1156 -0.8396
vn 0.2288 0.0464 -0.9724
vn -0.2245 -0.0461 -0.9734
vn -0.6943 -0.1381 -0.7063
vn -0.9475 -0.1885 -0.2583
vn -0.9148 -0.3105 0.2583
vn -0.6703 -0.2275 0.7063
vn -0.2127 -0.0748 0.9742
vn 0.2207 0.0765 0.9723
vn 0.5092 0.1899 0.8394
vn 0.8347 0.3272 0.4429
vn 0.8347 0.3272 -0.4429
vn 0.5092 0.1899 -0.8394
vn 0.2207 0.0765 -0.9723
vn -0.2127 -0.0748 -0.9742
vn -0.6703 -0.2275 -0.7063
vn -0.9148 -0.3105 -0.2583
vn -0.8664 -0.4273 0.2583
vn -0.6349 -0.3131 0.7063
vn -0.1956 -0.1006 0.9755
vn 0.2088 0.1053 0.9723
vn 0.4775 0.2605 0.8392
vn 0.7777 0.4474 0.4417
vn 0.7777 0.4474 -0.4417
vn 0.4775 0.2605 -0.8392
vn 0.2088 0.1053 -0.9723
vn -0.1956 -0.1006 -0.9755
vn -0.6349 -0.3131 -0.7063
vn -0.8664 -0.4273 -0.2583
vn -0.8033 -0.5367 0.2583
vn -0.5886 -0.3933 0.7063
vn -0.1737 -0.1220 0.9772
vn 0.1935 0.1323 0.9721
vn 0.4364 0.3258 0.8387
vn 0.7042 0.5574 0.4399
vn 0.7042 0.5574 -0.4399
vn 0.4364 0.3258 -0.8387
vn 0.1935 0.1323 -0.9721
vn -0.1737 -0.1220 -0.9772
vn -0.5886 -0.3933 -0.7063
vn -0.8033 -0.5367 -0.2583
vn -0.7263 -0.6370 0.2583
vn -0.5312 -0.4669 0.7070
vn -0.1480 -0.1388 0.9792
vn 0.1749 0.1573 0.9719
vn 0.3872 0.3848 0.8379
vn 0.6163 0.6547 0.4376
vn 0.6163 0.6547 -0.4376
vn 0.3872 0.3848 -0.8379
vn 0.1749 0.1573 -0.9719
vn -0.1480 -0.1388 -0.9792
vn -0.5312 -0.4669 -0.7070
vn -0.7263 -0.6370 -0.2583
vn -0.6370 -0.7263 0.2583
vn -0.4619 -0.5313 0.7101
vn -0.1199 -0.1508 0.9813
vn 0.1535 0.1799 0.9716
vn 0.3308 0.4365 0.8367
vn 0.5165 0.7377 0.4347
vn 0.5165 0.7377 -0.4347
vn 0.3308 0.4365 -0.8367
vn 0.1535 0.1799 -0.9716
vn -0.1199 -0.1508 -0.9813
vn -0.4619 -0.5313 -0.7101
vn -0.6370 -0.7263 -0.2583
vn -0.5367 -0.8033 0.2583
vn -0.3821 -0.5826 0.7174
vn -0.0910 -0.1581 0.9832
vn 0.1295 0.1999 0.9712
vn 0.2685 0.4801 0.8351
vn 0.4077 0.8050 0.4310
vn 0.4077 0.8050 -0.4310
vn 0.2685 0.4801 -0.8351
vn 0.1295 0.1999 -0.9712
vn -0.0910 -0.1581 -0.9832
vn -0.3821 -0.5826 -0.7174
vn -0.5367 -0.8033 -0.2583
vn -0.4273 -0.8664 0.2583
vn -0.2945 -0.6180 0.7290
vn -0.0605 -0.1605 0.9852
vn 0.1032 0.2174 0.9706
vn 0.2023 0.5159 0.8324
vn 0.3040 0.8538 0.4226
vn 0.3040 0.8538 -0.4226
vn 0.2023 0.5159 -0.8324
vn 0.1032 0.2174 -0.9706
vn -0.0605 -0.1605 -0.9852
vn -0.2945 -0.6180 -0.7290
vn -0.4273 -0.8664 -0.2583
vn -0.3090 -0.9148 0.2601
vn -0.2006 -0.6367 0.7446
vn -0.0312 -0.1568 0.9871
vn 0.0749 0.2318 0.9699
vn 0.1355 0.5472 0.8260
vn 0.2051 0.8878 0.4120
vn 0.2051 0.8878 -0.4120
vn 0.1355 0.5472 -0.8260
vn 0.0749 0.2318 -0.9699
vn -0.0312 -0.1568 -0.9871
vn -0.2006 -0.6367 -0.7446
vn -0.3090 -0.9148 -0.2601
vn -0.1807 -0.9464 0.2679
vn -0.1031 -0.6392 0.7621
vn -0.0041 -0.1494 0.9888
vn 0.0460 0.2431 0.9689
vn 0.0665 0.5721 0.8175
vn 0.0867 0.9104 0.4046
vn 0.0867 0.9104 -0.4046
vn 0.0665 0.5721 -0.8175
vn 0.0460 0.2431 -0.9689
vn -0.0041 -0.1494 -0.9888
vn -0.1031 -0.6392 -0.7621
vn -0.1807 -0.9464 -0.2679
vn -0.0457 -0.9590 0.2796
vn -0.0099 -0.6268 0.7791
vn 0.0195 -0.1391 0.9901
vn 0.0152 0.2514 0.9678
vn -0.0156 0.5840 0.8116
vn -0.0612 0.9140 0.4011
vn -0.0612 0.9140 -0.4011
vn -0.0156 0.5840 -0.8116
vn 0.0152 0.2514 -0.9678
vn 0.0195 -0.1391 -0.9901
vn -0.0099 -0.6268 -0.7791
vn -0.0457 -0.9590 -0.2796
vn 0.0914 -0.9515 0.2937
vn 0.0792 -0.6039 0.7931
vn 0.0407 -0.1255 0.9913
vn -0.0197 0.2538 0.9671
vn -0.1186 0.5745 0.8099
vn -0.2451 0.8853 0.3951
vn -0.2451 0.8853 -0.3951
vn -0.1186 0.5745 -0.8099
vn -0.0197 0.2538 -0.9671
vn 0.0407 -0.1255 -0.9913
vn 0.0792 -0.6039 -0.7931
vn 0.0914 -0.9515 -0.2937
vn 0.2245 -0.9231 0.3121
vn 0.1693 -0.5634 0.8087
vn 0.0673 -0.1052 0.9922
vn -0.0600 0.2481 0.9669
vn -0.2331 0.5385 0.8097
vn -0.4418 0.8110 0.3835
vn -0.4418 0.8110 -0.3835
vn -0.2331 0.5385 -0.8097
vn -0.0600 0.2481 -0.9669
vn 0.0673 -0.1052 -0.9922
vn 0.1693 -0.5634 -0.8087
vn 0.2245 -0.9231 -0.3121
vn 0.3941 -0.8515 0.3459
vn 0.2815 -0.4862 0.8273
vn 0.1020 -0.0717 0.9922
vn -0.1026 0.2342 0.9667
vn -0.3509 0.4789 0.8047
vn -0.6207 0.6923 0.3680
vn -0.6207 0.6923 -0.3680
vn -0.3509 0.4789 -0.8047
vn -0.1026 0.2342 -0.9667
vn 0.1020 -0.0717 -0.9922
vn 0.2815 -0.4862 -0.8273
vn 0.3941 -0.8515 -0.3459
vn 0.6302 -0.6874 0.3609
vn 0.4064 -0.3660 0.8372
vn 0.1355 -0.0312 0.9903
vn -0.1421 0.2148 0.9663
vn -0.3152 0.6084 0.7283
vn -0.2809 0.8830 0.3760
vn -0.4509 0.8877 -0.0929
vn -0.4593 0.4053 -0.7904
vn -0.1421 0.2148 -0.9663
vn 0.1355 -0.0312 -0.9903
vn 0.4064 -0.3660 -0.8372
vn 0.6302 -0.6874 -0.3609
vn 0.7988 -0.4799 0.3628
vn 0.5031 -0.2274 0.8338
vn 0.1689 0.0168 0.9855
vn -0.1542 0.2415 0.9581
vn -0.7049 0.5729 0.4183
vn -0.9821 0.1470 0.1180
vn -0.6597 0.7342 0.1605
vn -0.4329 0.5729 -0.6959
vn -0.1727 0.1957 -0.9653
vn 0.1689 0.0168 -0.9855
vn 0.5031 -0.2274 -0.8338
vn 0.7988 -0.4799 -0.3628
vn 0.8873 -0.2675 0.3757
vn 0.5581 -0.0960 0.8242
vn 0.1877 0.0766 0.9792
vn -0.5495 0.1578 0.8205
vn -0.9302 0.1213 0.3463
vn -0.9887 0.1038 0.1083
vn -0.9887 0.1038 -0.1083
vn -0.8427 0.4494 -0.2964
vn -0.1874 0.2208 -0.9572
vn 0.1876 0.0627 -0.9802
vn 0.5581 -0.0960 -0.8242
vn 0.8873 -0.2675 -0.3757
vn 0.9094 -0.0697 0.4101
vn 0.4953 0.2110 0.8427
vn 0.4633 0.2729 0.8431
vn -0.5855 0.1386 0.7988
vn -0.9415 0.0916 0.3243
vn -0.9922 0.0740 0.1003
vn -0.9922 0.0740 -0.1003
vn -0.9415 0.0916 -0.3243
vn -0.5776 0.0885 -0.8115
vn 0.2003 0.1312 -0.9709
vn 0.5885 0.0342 -0.8078
vn 0.9094 -0.0697 -0.4101
vn 0.6401 0.7682 0.0081
vn 0.5926 0.4280 0.6824
vn 0.5964 0.1264 0.7927
vn -0.6124 0.1322 0.7794
vn -0.9453 0.0756 0.3172
vn -0.9940 0.0569 0.0934
vn -0.9940 0.0569 -0.0934
vn -0.9453 0.0756 -0.3172
vn -0.6124 0.1322 -0.7794
vn 0.3917 0.2952 -0.8715
vn 0.7224 0.6906 -0.0342
vn 0.6401 0.7682 -0.0081
vn 0.9907 0.0958 0.0969
vn 0.9387 0.1052 0.3284
vn 0.6159 0.1539 0.7726
vn -0.6295 0.1311 0.7659
vn -0.9485 0.0631 0.3105
vn -0.9950 0.0463 0.0882
vn -0.9950 0.0463 -0.0882
vn -0.9485 0.0631 -0.3105
vn -0.6295 0.1311 -0.7659
vn 0.6159 0.1539 -0.7726
vn 0.9387 0.1052 -0.3284
vn 0.9907 0.0958 -0.0969
vn 0.9899 0.1144 0.0839
vn 0.9443 0.1260 0.3040
vn 0.6375 0.1722 0.7510
vn -0.6434 0.1243 0.7553
vn -0.9522 0.0528 0.3009
vn -0.9957 0.0382 0.0843
vn -0.9957 0.0382 -0.0843
vn -0.9522 0.0528 -0.3009
vn -0.6434 0.1243 -0.7553
vn 0.6375 0.1722 -0.7510
vn 0.9443 0.1260 -0.3040
vn 0.9899 0.1144 -0.0839
vn 0.9910 0.1057 0.0816
vn 0.9494 0.1166 0.2917
vn 0.6480 0.1572 0.7452
vn -0.6564 0.1045 0.7471
vn -0.9555 0.0405 0.2923
vn -0.9963 0.0277 0.0817
vn -0.9963 0.0277 -0.0817
vn -0.9555 0.0405 -0.2923
vn -0.6564 0.1045 -0.7471
vn 0.6480 0.1572 -0.7452
vn 0.9494 0.1166 -0.2917
vn 0.9910 0.1057 -0.0816
vn 0.9954 0.0503 0.0811
vn 0.9552 0.0549 0.2909
vn 0.6552 0.0726 0.7520
vn -0.6687 0.0452 0.7421
vn -0.9576 0.0162 0.2875
vn -0.9967 0.0105 0.0803
vn -0.9967 0.0105 -0.0803
vn -0.9576 0.0162 -0.2875
vn -0.6687 0.0452 -0.7421
vn 0.6552 0.0726 -0.7520
vn 0.9552 0.0549 -0.2909
vn 0.9954 0.0503 -0.0811
vt 0.000000 0.416667
vt 0.000000 0.500000
vt 0.000000 0.833333
vt 0.000000 0.916667
vt 0.000000 0.250000
vt 0.000000 0.333333
vt 0.000000 0.666667
vt 0.000000 0.750000
vt 0.000000 0.083333
vt 0.000000 0.166667
vt 0.000000 0.583333
vt 0.000000 1.000000
vt 0.000000 0.000000
vt 0.020833 0.500000
vt 0.020833 0.583333
vt 0.020833 0.666667
vt 0.020833 0.750000
vt 0.020833 0.833333
vt 0.020833 0.916667
vt 0.020833 1.000000
vt 0.020833 0.000000
vt 0.020833 0.083333
vt 0.020833 0.166667
vt 0.020833 0.250000
vt 0.020833 0.333333
vt 0.020833 0.416667
vt 0.041667 0.500000
vt 0.041667 0.583333
vt 0.041667 0.666667
vt 0.041667 0.750000
vt 0.041667 0.833333
vt 0.041667 0.916667
vt 0.041667 1.000000
vt 0.041667 0.000000
vt 0.041667 0.083333
vt 0.041667 0.166667
vt 0.041667 0.250000
vt 0.041667 0.333333
vt 0.041667 0.416667
vt 0.062500 0.500000
vt 0.062500 0.583333
vt 0.062500 0.666667
vt 0.062500 0.750000
vt 0.062500 0.833333
vt 0.062500 0.916667
vt 0.062500 1.000000
vt 0.062500 0.000000
vt 0.062500 0.083333
vt 0.062500 0.166667
vt 0.062500 0.250000
vt 0.062500 0.333333
vt 0.062500 0.416667
vt 0.083333 0.500000
vt 0.083333 0.583333
vt 0.083333 0.666667
vt 0.083333 0.750000
vt 0.083333 0.833333
vt 0.083333 0.916667
vt 0.083333 1.000000
vt 0.083333 0.000000
vt 0.083333 0.083333
vt 0.083333 0.166667
vt 0.083333 0.250000
vt 0.083333 0.333333
vt 0.083333 0.416667
vt 0.104167 0.500000
vt 0.104167 0.583333
vt 0.104167 0.666667
vt 0.104167 0.750000
vt 0.104167 0.833333
vt 0.104167 0.916667
vt 0.104167 1.000000
vt 0.104167 0.000000
vt 0.104167 0.083333
vt 0.104167 0.166667
vt 0.104167 0.250000
vt 0.104167 0.333333
vt 0.104167 0.416667
vt 0.125000 0.500000
vt 0.125000 0.583333
vt 0.125000 0.666667
vt 0.125000 0.750000
vt 0.125000 0.833333
vt 0.125000 0.916667
vt 0.125000 1.000000
vt 0.125000 0.000000
vt 0.125000 0.083333
vt 0.125000 0.166667
vt 0.125000 0.250000
vt 0.125000 0.333333
vt 0.125000 0.416667
vt 0.145833 0.500000
vt 0.145833 0.583333
vt 0.145833 0.666667
vt 0.145833 0.750000
vt 0.145833 0.833333
vt 0.145833 0.916667
vt 0.145833 1.000000
vt 0.145833 0.000000
vt 0.145833 0.083333
vt 0.145833 0.166667
vt 0.145833 0.250000
vt 0.145833 0.333333
vt 0.145833 0.416667
vt 0.166667 0.500000
vt 0.166667 0.583333
vt 0.166667 0.666667
vt 0.166667 0.750000
vt 0.166667 0.833333
vt 0.166667 0.916667
vt 0.166667 1.000000
vt 0.166667 0.000000
vt 0.166667 0.083333
vt 0.166667 0.166667
vt 0.166667 0.250000
vt 0.166667 0.333333
vt 0.166667 0.416667
vt 0.187500 0.500000
vt 0.187500 0.583333
vt 0.187500 0.666667
vt 0.187500 0.750000
vt 0.187500 0.833333
vt 0.187500 0.916667
vt 0.187500 1.000000
vt 0.187500 0.000000
vt 0.187500 0.083333
vt 0.187500 0.166667
vt 0.187500 0.250000
vt 0.187500 0.333333
vt 0.187500 0.416667
vt 0.208333 0.500000
vt 0.208333 0.583333
vt 0.208333 0.666667
vt 0.208333 0.750000
vt 0.208333 0.833333
vt 0.208333 0.916667
vt 0.208333 1.000000
vt 0.208333 0.000000
vt 0.208333 0.083333
vt 0.208333 0.166667
vt 0.208333 0.250000
vt 0.208333 0.333333
vt 0.208333 0.416667
vt 0.229167 0.500000
vt 0.229167 0.583333
vt 0.229167 0.666667
vt 0.229167 0.750000
vt 0.229167 0.833333
vt 0.229167 0.916667
vt 0.229167 1.000000
vt 0.229167 0.000000
vt 0.229167 0.083333
vt 0.229167 0.166667
vt 0.229167 0.250000
vt 0.229167 0.333333
vt 0.229167 0.416667
vt 0.250000 0.500000
vt 0.250000 0.583333
vt 0.250000 0.666667
vt 0.250000 0.750000
vt 0.250000 0.833333
vt 0.250000 0.916667
vt 0.250000 1.000000
vt 0.250000 0.000000
vt 0.250000 0.083333
vt 0.250000 0.166667
vt 0.250000 0.250000
vt 0.250000 0.333333
vt 0.250000 0.416667
vt 0.270833 0.500000
vt 0.270833 0.583333
vt 0.270833 0.666667
vt 0.270833 0.750000
vt 0.270833 0.833333
vt 0.270833 0.916667
vt 0.270833 1.000000
vt 0.270833 0.000000
vt 0.270833 0.083333
vt 0.270833 0.166667
vt 0.270833 0.250000
vt 0.270833 0.333333
vt 0.270833 0.416667
vt 0.291667 0.500000
vt 0.291667 0.583333
vt 0.291667 0.666667
vt 0.291667 0.750000
vt 0.291667 0.833333
vt 0.291667 0.916667
vt 0.291667 1.000000
vt 0.291667 0.000000
vt 0.291667 0.083333
vt 0.291667 0.166667
vt 0.291667 0.250000
vt 0.291667 0.333333
vt 0.291667 0.416667
vt 0.312500 0.500000
vt 0.312500 0.583333
vt 0.312500 0.666667
vt 0.312500 0.750000
vt 0.312500 0.833333
vt 0.312500 0.916667
vt 0.312500 1.000000
vt 0.312500 0.000000
vt 0.312500 0.083333
vt 0.312500 0.166667
vt 0.312500 0.250000
vt 0.312500 0.333333
vt 0.312500 0.416667
vt 0.333333 0.500000
vt 0.333333 0.583333
vt 0.333333 0.666667
vt 0.333333 0.750000
vt 0.333333 0.833333
vt 0.333333 0.916667
vt 0.333333 1.000000
vt 0.333333 0.000000
vt 0.333333 0.083333
vt 0.333333 0.166667
vt 0.333333 0.250000
vt 0.333333 0.333333
vt 0.333333 0.416667
vt 0.354167 0.500000
vt 0.354167 0.583333
vt 0.354167 0.666667
vt 0.354167 0.750000
vt 0.354167 0.833333
vt 0.354167 0.916667
vt 0.354167 1.000000
vt 0.354167 0.000000
vt 0.354167 0.083333
vt 0.354167 0.166667
vt 0.354167 0.250000
vt 0.354167 0.333333
vt 0.354167 0.416667
vt 0.375000 0.500000
vt 0.375000 0.583333
vt 0.375000 0.666667
vt 0.375000 0.750000
vt 0.375000 0.833333
vt 0.375000 0.916667
vt 0.375000 1.000000
vt 0.375000 0.000000
vt 0.375000 0.083333
vt 0.375000 0.166667
vt 0.375000 0.250000
vt 0.375000 0.333333
vt 0.375000 0.416667
vt 0.395833 0.500000
vt 0.395833 0.583333
vt 0.395833 0.666667
vt 0.395833 0.750000
vt 0.395833 0.833333
vt 0.395833 0.916667
vt 0.395833 1.000000
vt 0.395833 0.000000
vt 0.395833 0.083333
vt 0.395833 0.166667
vt 0.395833 0.250000
vt 0.395833 0.333333
vt 0.395833 0.416667
vt 0.416667 0.500000
vt 0.416667 0.583333
vt 0.416667 0.666667
vt 0.416667 0.750000
vt 0.416667 0.833333
vt 0.416667 0.916667
vt 0.416667 1.000000
vt 0.416667 0.000000
vt 0.416667 0.083333
vt 0.416667 0.166667
vt 0.416667 0.250000
vt 0.416667 0.333333
vt 0.416667 0.416667
vt 0.437500 0.500000
vt 0.437500 0.583333
vt 0.437500 0.666667
vt 0.437500 0.750000
vt 0.437500 0.833333
vt 0.437500 0.916667
vt 0.437500 1.000000
vt 0.437500 0.000000
vt 0.437500 0.083333
vt 0.437500 0.166667
vt 0.437500 0.250000
vt 0.437500 0.333333
vt 0.437500 0.416667
vt 0.458333 0.500000
vt 0.458333 0.583333
vt 0.458333 0.666667
vt 0.458333 0.750000
vt 0.458333 0.833333
vt 0.458333 0.916667
vt 0.458333 1.000000
vt 0.458333 0.000000
vt 0.458333 0.083333
vt 0.458333 0.166667
vt 0.458333 0.250000
vt 0.458333 0.333333
vt 0.458333 0.416667
vt 0.479167 0.500000
vt 0.479167 0.583333
vt 0.479167 0.666667
vt 0.479167 0.750000
vt 0.479167 0.833333
vt 0.479167 0.916667
vt 0.479167 1.000000
vt 0.479167 0.000000
vt 0.479167 0.083333
vt 0.479167 0.166667
vt 0.479167 0.250000
vt 0.479167 0.333333
vt 0.479167 0.416667
vt 0.500000 0.500000
vt 0.500000 0.583333
vt 0.500000 0.666667
vt 0.500000 0.750000
vt 0.500000 0.833333
vt 0.500000 0.916667
vt 0.500000 1.000000
vt 0.500000 0.000000
vt 0.500000 0.083333
vt 0.500000 0.166667
vt 0.500000 0.250000
vt 0.500000 0.333333
vt 0.500000 0.416667
s 0
usemtl Material
f 36/1/1 25/2/1 24/2/1 13/1/1
f 29/3/2 30/4/2 19/4/2 20/3/2
f 34/5/3 35/6/3 14/6/3 15/5/3
f 27/7/4 28/8/4 21/8/4 22/7/4
f 32/9/5 33/10/5 16/10/5 17/9/5
f 25/2/6 26/11/6 23/11/6 24/2/6
f 30/4/7 31/12/7 18/12/7 19/4/7
f 35/6/8 36/1/8 13/1/8 14/6/8
f 28/8/9 29/3/9 20/3/9 21/8/9
f 33/10/10 34/5/10 15/5/10 16/10/10
f 26/11/11 27/7/11 22/7/11 23/11/11
f 31/13/12 32/9/12 17/9/12 18/13/12
f 25/2/13 37/14/13 38/15/13 26/11/13
f 26/11/14 38/15/14 39/16/14 27/7/14
f 27/7/15 39/16/15 40/17/15 28/8/15
f 28/8/16 40/17/16 41/18/16 29/3/16
f 29/3/17 41/18/17 42/19/17 30/4/17
f 30/4/18 42/19/18 43/20/18 31/12/18
f 31/13/19 43/21/19 44/22/19 32/9/19
f 32/9/20 44/22/20 45/23/20 33/10/20
f 33/10/21 45/23/21 46/24/21 34/5/21
f 34/5/22 46/24/22 47/25/22 35/6/22
f 35/6/23 47/25/23 48/26/23 36/1/23
f 36/1/24 48/26/24 37/14/24 25/2/24
f 37/14/25 49/27/25 50/28/25 38/15/25
f 38/15/26 50/28/26 51/29/26 39/16/26
f 39/16/27 51/29/27 52/30/27 40/17/27
f 40/17/28 52/30/28 53/31/28 41/18/28
f 41/18/29 53/31/29 54/32/29 42/19/29
f 42/19/30 54/32/30 55/33/30 43/20/30
f 43/21/31 55/34/31 56/35/31 44/22/31
f 44/22/32 56/35/32 57/36/32 45/23/32
f 45/23/33 57/36/33 58/37/33 46/24/33
f 46/24/34 58/37/34 59/38/34 47/25/34
f 47/25/35 59/38/35 60/39/35 48/26/35
f 48/26/36 60/39/36 49/27/36 37/14/36
f 49/27/37 61/40/37 62/41/37 50/28/37
f 50/28/38 62/41/38 63/42/38 51/29/38
f 51/29/39 63/42/39 64/43/39 52/30/39
f 52/30/40 64/43/40 65/44/40 53/31/40
f 53/31/41 65/44/41 66/45/41 54/32/41
f 54/32/42 66/45/42 67/46/42 55/33/42
f 55/34/43 67/47/43 68/48/43 56/35/43
f 56/35/44 68/48/44 69/49/44 57/36/44
f 57/36/45 69/49/45 70/50/45 58/37/45
f 58/37/46 70/50/46 71/51/46 59/38/46
f 59/38/47 71/51/47 72/52/47 60/39/47
f 60/39/48 72/52/48 61/40/48 49/27/48
f 61/40/49 73/53/49 74/54/49 62/41/49
f 62/41/50 74/54/50 75/55/50 63/42/50
f 63/42/51 75/55/51 76/56/51 64/43/51
f 64/43/52 76/56/52 77/57/52 65/44/52
f 65/44/53 77/57/53 78/58/53 66/45/53
f 66/45/54 78/58/54 79/59/54 67/46/54
f 67/47/55 79/60/55 80/61/55 68/48/55
f 68/48/56 80/61/56 81/62/56 69/49/56
f 69/49/57 81/62/57 82/63/57 70/50/57
f 70/50/58 82/63/58 83/64/58 71/51/58
f 71/51/59 83/64/59 84/65/59 72/52/59
f 72/52/60 84/65/60 73/53/60 61/40/60
f 73/53/61 85/66/61 86/67/61 74/54/61
f 74/54/62 86/67/62 87/68/62 75/55/62
f 75/55/63 87/68/63 88/69/63 76/56/63
f 76/56/64 88/69/64 89/70/64 77/57/64
f 77/57/65 89/70/65 90/71/65 78/58/65
f 78/58/66 90/71/66 91/72/66 79/59/66
f 79/60/67 91/73/67 92/74/67 80/61/67
f 80/61/68 92/74/68 93/75/68 81/62/68
f 81/62/69 93/75/69 94/76/69 82/63/69
f 82/63/70 94/76/70 95/77/70 83/64/70
f 83/64/71 95/77/71 96/78/71 84/65/71
f 84/65/72 96/78/72 85/66/72 73/53/72
f 85/66/73 97/79/73 98/80/73 86/67/73
f 86/67/74 98/80/74 99/81/74 87/68/74
f 87/68/75 99/81/75 100/82/75 88/69/75
f 88/69/76 100/82/76 101/83/76 89/70/76
f 89/70/77 101/83/77 102/84/77 90/71/77
f 90/71/78 102/84/78 103/85/78 91/72/78
f 91/73/79 103/86/79 104/87/79 92/74/79
f 92/74/80 104/87/80 105/88/80 93/75/80
f 93/75/81 105/88/81 106/89/81 94/76/81
f 94/76/82 106/89/82 107/90/82 95/77/82
f 95/77/83 107/90/83 108/91/83 96/78/83
f 96/78/84 108/91/84 97/79/84 85/66/84
f 97/79/85 109/92/85 110/93/85 98/80/85
f 98/80/86 110/93/86 111/94/86 99/81/86
f 99/81/87 111/94/87 112/95/87 100/82/87
f 100/82/88 112/95/88 113/96/88 101/83/88
f 101/83/89 113/96/89 114/97/89 102/84/89
f 102/84/90 114/97/90 115/98/90 103/85/90
f 103/86/91 115/99/91 116/100/91 104/87/91
f 104/87/92 116/100/92 117/101/92 105/88/92
f 105/88/93 117/101/93 118/102/93 106/89/93
f 106/89/94 118/102/94 119/103/94 107/90/94
f 107/90/95 119/103/95 120/104/95 108/91/95
f 108/91/96 120/104/96 109/92/96 97/79/96
f 109/92/97 121/105/97 122/106/97 110/93/97
f 110/93/98 122/106/98 123/107/98 111/94/98
f 111/94/99 123/107/99 124/108/99 112/95/99
f 112/95/100 124/108/100 125/109/100 113/96/100
f 113/96/101 125/109/101 126/110/101 114/97/101
f 114/97/102 126/110/102 127/111/102 115/98/102
f 115/99/103 127/112/103 128/113/103 116/100/103
f 116/100/104 128/113/104 129/114/104 117/101/104
f 117/101/105 129/114/105 130/115/105 118/102/105
f 118/102/106 130/115/106 131/116/106 119/103/106
f 119/103/107 131/116/107 132/117/107 120/104/107
f 120/104/108 132/117/108 121/105/108 109/92/108
f 121/105/109 133/118/109 134/119/109 122/106/109
f 122/106/110 134/119/110 135/120/110 123/107/110
f 123/107/111 135/120/111 136/121/111 124/108/111
f 124/108/112 136/121/112 137/122/112 125/109/112
f 125/109/113 137/122/113 138/123/113 126/110/113
f 126/110/114 138/123/114 139/124/114 127/111/114
f 127/112/115 139/125/115 140/126/115 128/113/115
f 128/113/116 140/126/116 141/127/116 129/114/116
f 129/114/117 141/127/117 142/128/117 130/115/117
f 130/115/118 142/128/118 143/129/118 131/116/118
f 131/116/119 143/129/119 144/130/119 132/117/119
f 132/117/120 144/130/120 133/118/120 121/105/120
f 133/118/121 145/131/121 146/132/121 134/119/121
f 134/119/122 146/132/122 147/133/122 135/120/122
f 135/120/123 147/133/123 148/134/123 136/121/123
f 136/121/124 148/134/124 149/135/124 137/122/124
f 137/122/125 149/135/125 150/136/125 138/123/125
f 138/123/126 150/136/126 151/137/126 139/124/126
f 139/125/127 151/138/127 152/139/127 140/126/127
f 140/126/128 152/139/128 153/140/128 141/127/128
f 141/127/129 153/140/129 154/141/129 142/128/129
f 142/128/130 154/141/130 155/142/130 143/129/130
f 143/129/131 155/142/131 156/143/131 144/130/131
f 144/130/132 156/143/132 145/131/132 133/118/132
f 145/131/133 157/144/133 158/145/133 146/132/133
f 146/132/134 158/145/134 159/146/134 147/133/134
f 147/133/135 159/146/135 160/147/135 148/134/135
f 148/134/136 160/147/136 161/148/136 149/135/136
f 149/135/137 161/148/137 162/149/137 150/136/137
f 150/136/138 162/149/138 163/150/138 151/137/138
f 151/138/139 163/151/139 164/152/139 152/139/139
f 152/139/140 164/152/140 165/153/140 153/140/140
f 153/140/141 165/153/141 166/154/141 154/141/141
f 154/141/142 166/154/142 167/155/142 155/142/142
f 155/142/143 167/155/143 168/156/143 156/143/143
f 156/143/144 168/156/144 157/144/144 145/131/144
f 157/144/145 169/157/145 170/158/145 158/145/145
f 158/145/146 170/158/146 171/159/146 159/146/146
f 159/146/147 171/159/147 172/160/147 160/147/147
f 160/147/148 172/160/148 173/161/148 161/148/148
f 161/148/149 173/161/149 174/162/149 162/149/149
f 162/149/150 174/162/150 175/163/150 163/150/150
f 163/151/151 175/164/151 176/165/151 164/152/151
f 164/152/152 176/165/152 177/166/152 165/153/152
f 165/153/153 177/166/153 178/167/153 166/154/153
f 166/154/154 178/167/154 179/168/154 167/155/154
f 167/155/155 179/168/155 180/169/155 168/156/155
f 168/156/156 180/169/156 169/157/156 157/144/156
f 169/157/157 181/170/157 182/171/157 170/158/157
f 170/158/158 182/171/158 183/172/158 171/159/158
f 171/159/159 183/172/159 184/173/159 172/160/159
f 172/160/160 184/173/160 185/174/160 173/161/160
f 173/161/161 185/174/161 186/175/161 174/162/161
f 174/162/162 186/175/162 187/176/162 175/163/162
f 175/164/163 187/177/163 188/178/163 176/165/163
f 176/165/164 188/178/164 189/179/164 177/166/164
f 177/166/165 189/179/165 190/180/165 178/167/165
f 178/167/166 190/180/166 191/181/166 179/168/166
f 179/168/167 191/181/167 192/182/167 180/169/167
f 180/169/168 192/182/168 181/170/168 169/157/168
f 181/170/169 193/183/169 194/184/169 182/171/169
f 182/171/170 194/184/170 195/185/170 183/172/170
f 183/172/171 195/185/171 196/186/171 184/173/171
f 184/173/172 196/186/172 197/187/172 185/174/172
f 185/174/173 197/187/173 198/188/173 186/175/173
f 186/175/174 198/188/174 199/189/174 187/176/174
f 187/177/175 199/190/175 200/191/175 188/178/175
f 188/178/176 200/191/176 201/192/176 189/179/176
f 189/179/177 201/192/177 202/193/177 190/180/177
f 190/180/178 202/193/178 203/194/178 191/181/178
f 191/181/179 203/194/179 204/195/179 192/182/179
f 192/182/180 204/195/180 193/183/180 181/170/180
f 193/183/181 205/196/181 206/197/181 194/184/181
f 194/184/182 206/197/182 207/198/182 195/185/182
f 195/185/183 207/198/183 208/199/183 196/186/183
f 196/186/184 208/199/184 209/200/184 197/187/184
f 197/187/185 209/200/185 210/201/185 198/188/185
f 198/188/186 210/201/186 211/202/186 199/189/186
f 199/190/187 211/203/187 212/204/187 200/191/187
f 200/191/188 212/204/188 213/205/188 201/192/188
f 201/192/189 213/205/189 214/206/189 202/193/189
f 202/193/190 214/206/190 215/207/190 203/194/190
f 203/194/191 215/207/191 216/208/191 204/195/191
f 204/195/192 216/208/192 205/196/192 193/183/192
f 205/196/193 217/209/193 218/210/193 206/197/193
f 206/197/194 218/210/194 219/211/194 207/198/194
f 207/198/195 219/211/195 220/212/195 208/199/195
f 208/199/196 220/212/196 221/213/196 209/200/196
f 209/200/197 221/213/197 222/214/197 210/201/197
f 210/201/198 222/214/198 223/215/198 211/202/198
f 211/203/199 223/216/199 224/217/199 212/204/199
f 212/204/200 224/217/200 225/218/200 213/205/200
f 213/205/201 225/218/201 226/219/201 214/206/201
f 214/206/202 226/219/202 227/220/202 215/207/202
f 215/207/203 227/220/203 228/221/203 216/208/203
f 216/208/204 228/221/204 217/209/204 205/196/204
f 217/209/205 229/222/205 230/223/205 218/210/205
f 218/210/206 230/223/206 231/224/206 219/211/206
f 219/211/207 231/224/207 232/225/207 220/212/207
f 220/212/208 232/225/208 233/226/208 221/213/208
f 221/213/209 233/226/209 234/227/209 222/214/209
f 222/214/210 234/227/210 235/228/210 223/215/210
f 223/216/211 235/229/211 236/230/211 224/217/211
f 224/217/212 236/230/212 237/231/212 225/218/212
f 225/218/213 237/231/213 238/232/213 226/219/213
f 226/219/214 238/232/214 239/233/214 227/220/214
f 227/220/215 239/233/215 240/234/215 228/221/215
f 228/221/216 240/234/216 229/222/216 217/209/216
f 229/222/217 241/235/217 242/236/217 230/223/217
f 230/223/218 242/236/218 243/237/218 231/224/218
f 231/224/219 243/237/219 244/238/219 232/225/219
f 232/225/220 244/238/220 245/239/220 233/226/220
f 233/226/221 245/239/221 246/240/221 234/227/221
f 234/227/222 246/240/222 247/241/222 235/228/222
f 235/229/223 247/242/223 248/243/223 236/230/223
f 236/230/224 248/243/224 249/244/224 237/231/224
f 237/231/225 249/244/225 250/245/225 238/232/225
f 238/232/226 250/245/226 251/246/226 239/233/226
f 239/233/227 251/246/227 252/247/227 240/234/227
f 240/234/228 252/247/228 241/235/228 229/222/228
f 241/235/229 253/248/229 254/249/229 242/236/229
f 242/236/230 254/249/230 255/250/230 243/237/230
f 243/237/231 255/250/231 256/251/231 244/238/231
f 244/238/232 256/251/232 257/252/232 245/239/232
f 245/239/233 257/252/233 258/253/233 246/240/233
f 246/240/234 258/253/234 259/254/234 247/241/234
f 247/242/235 259/255/235 260/256/235 248/243/235
f 248/243/236 260/256/236 261/257/236 249/244/236
f 249/244/237 261/257/237 262/258/237 250/245/237
f 250/245/238 262/258/238 263/259/238 251/246/238
f 251/246/239 263/259/239 264/260/239 252/247/239
f 252/247/240 264/260/240 253/248/240 241/235/240
f 253/248/241 265/261/241 266/262/241 254/249/241
f 254/249/242 266/262/242 267/263/242 255/250/242
f 255/250/243 267/263/243 268/264/243 256/251/243
f 256/251/244 268/264/244 269/265/244 257/252/244
f 257/252/245 269/265/245 270/266/245 258/253/245
f 258/253/246 270/266/246 271/267/246 259/254/246
f 259/255/247 271/268/247 272/269/247 260/256/247
f 260/256/248 272/269/248 273/270/248 261/257/248
f 261/257/249 273/270/249 274/271/249 262/258/249
f 262/258/250 274/271/250 275/272/250 263/259/250
f 263/259/251 275/272/251 276/273/251 264/260/251
f 264/260/252 276/273/252 265/261/252 253/248/252
f 265/261/253 277/274/253 278/275/253 266/262/253
f 266/262/254 278/275/254 279/276/254 267/263/254
f 267/263/255 279/276/255 280/277/255 268/264/255
f 268/264/256 280/277/256 281/278/256 269/265/256
f 269/265/257 281/278/257 282/279/257 270/266/257
f 270/266/258 282/279/258 283/280/258 271/267/258
f 271/268/259 283/281/259 284/282/259 272/269/259
f 272/269/260 284/282/260 285/283/260 273/270/260
f 273/270/261 285/283/261 286/284/261 274/271/261
f 274/271/262 286/284/262 287/285/262 275/272/262
f 275/272/263 287/285/263 288/286/263 276/273/263
f 276/273/264 288/286/264 277/274/264 265/261/264
f 277/274/265 289/287/265 290/288/265 278/275/265
f 278/275/266 290/288/266 291/289/266 279/276/266
f 279/276/267 291/289/267 292/290/267 280/277/267
f 280/277/268 292/290/268 293/291/268 281/278/268
f 281/278/269 293/291/269 294/292/269 282/279/269
f 282/279/270 294/292/270 295/293/270 283/280/270
f 283/281/271 295/294/271 296/295/271 284/282/271
f 284/282/272 296/295/272 297/296/272 285/283/272
f 285/283/273 297/296/273 298/297/273 286/284/273
f 286/284/274 298/297/274 299/298/274 287/285/274
f 287/285/275 299/298/275 300/299/275 288/286/275
f 288/286/276 300/299/276 289/287/276 277/274/276
f 289/287/277 301/300/277 302/301/277 290/288/277
f 290/288/278 302/301/278 303/302/278 291/289/278
f 291/289/279 303/302/279 304/303/279 292/290/279
f 292/290/280 304/303/280 305/304/280 293/291/280
f 293/291/281 305/304/281 306/305/281 294/292/281
f 294/292/282 306/305/282 307/306/282 295/293/282
f 295/294/283 307/307/283 308/308/283 296/295/283
f 296/295/284 308/308/284 309/309/284 297/296/284
f 297/296/285 309/309/285 310/310/285 298/297/285
f 298/297/286 310/310/286 311/311/286 299/298/286
f 299/298/287 311/311/287 312/312/287 300/299/287
f 300/299/288 312/312/288 301/300/288 289/287/288
f 301/300/289 1/313/289 2/314/289 302/301/289
f 302/301/290 2/314/290 3/315/290 303/302/290
f 303/302/291 3/315/291 4/316/291 304/303/291
f 304/303/292 4/316/292 5/317/292 305/304/292
f 305/304/293 5/317/293 6/318/293 306/305/293
f 306/305/294 6/318/294 7/319/294 307/306/294
f 307/307/295 7/320/295 8/321/295 308/308/295
f 308/308/296 8/321/296 9/322/296 309/309/296
f 309/309/297 9/322/297 10/323/297 310/310/297
f 310/310/298 10/323/298 11/324/298 311/311/298
f 311/311/299 11/324/299 12/325/299 312/312/299
f 312/312/300 12/325/300 1/313/300 301/300/300
